# This file uses centimeters as units for non-parametric coordinates.

mtllib Corner_01.mtl
g default
v -1.500000 3.150000 1.500000
v 1.500000 3.150000 1.500000
v -1.500000 3.450000 1.500000
v 1.500000 3.450000 1.500000
v -1.500000 3.450000 -1.500000
v 1.500000 3.450000 -1.500000
v -1.500000 3.150000 -1.500000
v 1.500000 3.150000 -1.500000
vt 0.375000 0.000000
vt 0.625000 0.000000
vt 0.375000 0.250000
vt 0.625000 0.250000
vt 0.375000 0.500000
vt 0.625000 0.500000
vt 0.375000 0.750000
vt 0.625000 0.750000
vt 0.375000 1.000000
vt 0.625000 1.000000
vt 0.875000 0.000000
vt 0.875000 0.250000
vt 0.125000 0.000000
vt 0.125000 0.250000
vn 0.000000 0.000000 1.000000
vn 0.000000 0.000000 1.000000
vn 0.000000 0.000000 1.000000
vn 0.000000 0.000000 1.000000
vn 0.000000 1.000000 0.000000
vn 0.000000 1.000000 0.000000
vn 0.000000 1.000000 0.000000
vn 0.000000 1.000000 0.000000
vn 0.000000 0.000000 -1.000000
vn 0.000000 0.000000 -1.000000
vn 0.000000 0.000000 -1.000000
vn 0.000000 0.000000 -1.000000
vn 0.000000 -1.000000 0.000000
vn 0.000000 -1.000000 0.000000
vn 0.000000 -1.000000 0.000000
vn 0.000000 -1.000000 0.000000
vn 1.000000 0.000000 0.000000
vn 1.000000 0.000000 0.000000
vn 1.000000 0.000000 0.000000
vn 1.000000 0.000000 0.000000
vn -1.000000 0.000000 0.000000
vn -1.000000 0.000000 0.000000
vn -1.000000 0.000000 0.000000
vn -1.000000 0.000000 0.000000
s off
g Wall_E_01:pCube4
usemtl Wall_E_01:lambert2SG
f 1/1/1 2/2/2 4/4/3 3/3/4
f 3/3/5 4/4/6 6/6/7 5/5/8
f 5/5/9 6/6/10 8/8/11 7/7/12
f 7/7/13 8/8/14 2/10/15 1/9/16
f 2/2/17 8/11/18 6/12/19 4/4/20
f 7/13/21 1/1/22 3/3/23 5/14/24
g default
v 1.000000 3.150000 -1.000000
v -1.500000 3.150000 -1.000000
v -1.500000 0.150000 -1.200000
v 1.200000 0.150000 -1.200000
v 1.000000 3.150000 1.500000
v 1.200000 0.150000 1.500000
v 1.500000 0.150000 1.500000
v 1.500000 3.150000 1.500000
v 1.500000 0.150000 -1.500000
v 1.500000 3.150000 -1.500000
v -1.500000 3.150000 -1.500000
v -1.500000 0.150000 -1.500000
v -1.500000 2.721429 -1.200000
v 1.200000 2.721429 -1.200000
v 1.200000 2.721429 1.500000
v 1.500000 2.721429 1.500000
v 1.500000 2.721429 -1.500000
v -1.500000 2.721429 -1.500000
vt 0.581519 0.617669
vt 0.614466 0.617669
vt 0.614466 0.664736
vt 0.559554 0.664736
vt 0.614466 0.335264
vt 0.581519 0.335264
vt 0.276457 0.276553
vt 0.331369 0.331465
vt 0.001896 0.331465
vt 0.001896 0.276553
vt 0.331369 0.001992
vt 0.276457 0.001992
vt 0.168077 0.998321
vt 0.101634 0.855943
vt 0.998611 0.855943
vt 0.998611 0.998321
vt 0.998611 0.001679
vt 0.101634 0.001679
vt 0.055600 0.855074
vt 0.950903 0.855074
vt 0.884584 0.997186
vt 0.055600 0.997186
vt 0.950903 0.002404
vt 0.055600 0.002404
vt 0.633881 0.998008
vt 0.600934 0.998008
vt 0.600934 0.701482
vt 0.633881 0.668535
vt 0.304408 0.701482
vt 0.304408 0.668535
vt 0.673068 0.668535
vt 0.673068 0.950940
vt 0.640121 0.950940
vt 0.640121 0.668535
vt 0.640121 0.998008
vt 0.695033 0.998008
vt 0.337794 0.001992
vt 0.620200 0.001992
vt 0.620200 0.331465
vt 0.337794 0.331465
vt 0.667267 0.001992
vt 0.667267 0.331465
vt 0.620305 0.335264
vt 0.949778 0.335264
vt 0.949778 0.382331
vt 0.620305 0.382331
vt 0.949778 0.664736
vt 0.620305 0.664736
vn 0.000000 0.000000 1.000000
vn 0.000000 0.000000 1.000000
vn 0.000000 0.000000 1.000000
vn 0.000000 0.000000 1.000000
vn 0.000000 1.000000 0.000001
vn 0.000000 1.000000 0.000001
vn 0.000000 1.000000 0.000001
vn 0.000000 1.000000 0.000001
vn -0.906183 -0.422885 0.000000
vn -0.906183 -0.422885 0.000000
vn -0.906183 -0.422885 0.000000
vn -0.906183 -0.422885 0.000000
vn 0.000000 -0.422886 0.906183
vn 0.000000 -0.422886 0.906183
vn 0.000000 -0.422886 0.906183
vn 0.000000 -0.422886 0.906183
vn 0.000000 1.000000 0.000000
vn 0.000000 1.000000 0.000000
vn 0.000000 1.000000 0.000000
vn 0.000000 1.000000 0.000000
vn 0.000000 0.000000 1.000000
vn 0.000000 0.000000 1.000000
vn 0.000000 0.000000 1.000000
vn 0.000000 0.000000 1.000000
vn 0.000000 0.000000 1.000000
vn 0.000000 0.000000 1.000000
vn 0.000000 0.000000 1.000000
vn 0.000000 0.000000 1.000000
vn -1.000000 0.000000 0.000000
vn -1.000000 0.000000 0.000000
vn -1.000000 0.000000 0.000000
vn -1.000000 0.000000 0.000000
vn 0.000000 -1.000000 0.000000
vn 0.000000 -1.000000 0.000000
vn 0.000000 -1.000000 0.000000
vn 0.000000 -1.000000 0.000000
vn -1.000000 0.000000 0.000000
vn -1.000000 0.000000 0.000000
vn -1.000000 0.000000 0.000000
vn -1.000000 0.000000 0.000000
vn 1.000000 0.000000 0.000000
vn 1.000000 0.000000 0.000000
vn 1.000000 0.000000 0.000000
vn 1.000000 0.000000 0.000000
vn -1.000000 0.000000 0.000000
vn -1.000000 0.000000 0.000000
vn -1.000000 0.000000 0.000000
vn -1.000000 0.000000 0.000000
vn 0.000000 0.000000 -1.000000
vn 0.000000 0.000000 -1.000000
vn 0.000000 0.000000 -1.000000
vn 0.000000 0.000000 -1.000000
vn 1.000000 0.000000 0.000000
vn 1.000000 0.000000 0.000000
vn 1.000000 0.000000 0.000000
vn 1.000000 0.000000 0.000000
vn 0.000000 0.000000 -1.000000
vn 0.000000 0.000000 -1.000000
vn 0.000000 0.000000 -1.000000
vn 0.000000 0.000000 -1.000000
vn 0.000000 -1.000000 0.000000
vn 0.000000 -1.000000 0.000000
vn 0.000000 -1.000000 0.000000
vn 0.000000 -1.000000 0.000000
s off
g polySurface1 group1
usemtl lambert6SG
f 23/15/25 24/16/26 16/17/27 13/18/28
f 9/21/29 18/22/30 19/23/31 10/24/32
f 9/27/33 22/28/34 23/29/35 13/30/36
f 21/33/37 22/34/38 9/35/39 10/36/40
f 16/25/41 18/22/42 9/21/43 13/26/44
f 12/37/45 22/34/46 21/33/47 11/38/48
f 15/19/49 24/16/50 23/15/51 14/20/52
f 14/31/53 23/29/54 22/28/55 12/32/56
f 15/39/57 14/40/58 12/41/59 17/42/60
f 11/45/61 21/46/62 26/47/63 20/48/64
f 17/51/65 25/52/66 24/53/67 15/54/68
f 19/49/69 26/47/70 21/46/71 10/50/72
f 19/57/73 18/58/74 25/59/75 26/60/76
f 24/53/77 25/52/78 18/55/79 16/56/80
f 25/59/81 17/61/82 20/62/83 26/60/84
f 17/42/85 12/41/86 11/43/87 20/44/88
g default
v -1.500000 -0.150000 1.500000
v 1.500000 -0.150000 1.500000
v -1.500000 0.150000 1.500000
v 1.500000 0.150000 1.500000
v -1.500000 0.150000 -1.500000
v 1.500000 0.150000 -1.500000
v -1.500000 -0.150000 -1.500000
v 1.500000 -0.150000 -1.500000
vt 0.001868 0.498129
vt 0.001868 0.001992
vt 0.051481 0.001992
vt 0.051481 0.498129
vt 0.001925 0.001615
vt 0.999032 0.001615
vt 0.999032 0.998721
vt 0.001925 0.998721
vt 0.561229 0.498129
vt 0.561229 0.001992
vt 0.610843 0.001992
vt 0.610843 0.498129
vt 0.439618 0.501871
vt 0.935755 0.501871
vt 0.935755 0.998008
vt 0.439618 0.998008
vt 0.384252 0.998008
vt 0.384252 0.501871
vt 0.433865 0.501871
vt 0.433865 0.998008
vt 0.328886 0.998008
vt 0.328886 0.501871
vt 0.378499 0.501871
vt 0.378499 0.998008
vn 0.000000 0.000000 1.000000
vn 0.000000 0.000000 1.000000
vn 0.000000 0.000000 1.000000
vn 0.000000 0.000000 1.000000
vn 0.000000 1.000000 0.000000
vn 0.000000 1.000000 0.000000
vn 0.000000 1.000000 0.000000
vn 0.000000 1.000000 0.000000
vn 0.000000 0.000000 -1.000000
vn 0.000000 0.000000 -1.000000
vn 0.000000 0.000000 -1.000000
vn 0.000000 0.000000 -1.000000
vn 0.000000 -1.000000 0.000000
vn 0.000000 -1.000000 0.000000
vn 0.000000 -1.000000 0.000000
vn 0.000000 -1.000000 0.000000
vn 1.000000 0.000000 0.000000
vn 1.000000 0.000000 0.000000
vn 1.000000 0.000000 0.000000
vn 1.000000 0.000000 0.000000
vn -1.000000 0.000000 0.000000
vn -1.000000 0.000000 0.000000
vn -1.000000 0.000000 0.000000
vn -1.000000 0.000000 0.000000
s off
g group1 Wall_E_01:pCube3
usemtl lambert5SG
f 27/63/89 28/64/90 30/65/91 29/66/92
f 29/67/93 30/68/94 32/69/95 31/70/96
f 31/71/97 32/72/98 34/73/99 33/74/100
f 33/75/101 34/76/102 28/77/103 27/78/104
f 28/79/105 34/80/106 32/81/107 30/82/108
f 33/83/109 27/84/110 29/85/111 31/86/112
g default
v -1.500000 3.150000 1.000000
v -1.500000 0.150000 1.200000
v -1.500000 0.150000 1.500000
v -1.500000 3.150000 1.500000
v -1.200000 0.150000 1.200000
v -1.000000 3.150000 1.000000
v -1.000000 3.150000 1.500000
v -1.200000 0.150000 1.500000
v -1.500000 2.721429 1.200000
v -1.500000 2.721429 1.500000
v -1.200000 2.721429 1.200000
v -1.200000 2.721429 1.500000
vt 0.242279 0.855720
vt 0.341881 0.855720
vt 0.341881 0.998008
vt 0.175878 0.998008
vt 0.242279 0.001992
vt 0.341881 0.001992
vt 0.349626 0.855720
vt 0.449228 0.855720
vt 0.515629 0.998008
vt 0.349626 0.998008
vt 0.349626 0.001992
vt 0.449228 0.001992
vt 0.523374 0.855720
vt 0.622976 0.855720
vt 0.689377 0.998008
vt 0.523374 0.998008
vt 0.523375 0.001992
vt 0.622976 0.001992
vt 0.970472 0.101594
vt 0.870871 0.101594
vt 0.870871 0.001992
vt 0.970472 0.001992
vt 0.069881 0.855804
vt 0.169483 0.855804
vt 0.169483 0.998092
vt 0.003480 0.998092
vt 0.069881 0.002076
vt 0.169483 0.002076
vt 0.863125 0.001992
vt 0.863125 0.167995
vt 0.697123 0.167995
vt 0.697123 0.001992
vn -1.000000 -0.000000 -0.000001
vn -1.000000 -0.000000 -0.000001
vn -1.000000 -0.000000 -0.000001
vn -1.000000 -0.000000 -0.000001
vn 0.906183 -0.422886 -0.000000
vn 0.906183 -0.422886 -0.000000
vn 0.906183 -0.422886 -0.000000
vn 0.906183 -0.422886 -0.000000
vn 0.000000 0.000000 1.000000
vn 0.000000 0.000000 1.000000
vn 0.000000 0.000000 1.000000
vn 0.000000 0.000000 1.000000
vn 0.000000 -1.000000 0.000000
vn 0.000000 -1.000000 0.000000
vn 0.000000 -1.000000 0.000000
vn 0.000000 -1.000000 0.000000
vn 0.000000 -0.422886 -0.906183
vn 0.000000 -0.422886 -0.906183
vn 0.000000 -0.422886 -0.906183
vn 0.000000 -0.422886 -0.906183
vn 0.000000 1.000000 0.000000
vn 0.000000 1.000000 0.000000
vn 0.000000 1.000000 0.000000
vn 0.000000 1.000000 0.000000
vn -1.000000 -0.000000 -0.000000
vn -1.000000 -0.000000 -0.000000
vn -1.000000 -0.000000 -0.000000
vn -1.000000 -0.000000 -0.000000
vn -0.000000 -0.000000 1.000000
vn -0.000000 -0.000000 1.000000
vn -0.000000 -0.000000 1.000000
vn -0.000000 -0.000000 1.000000
vn 1.000000 0.000000 0.000000
vn 1.000000 0.000000 0.000000
vn 1.000000 0.000000 0.000000
vn 1.000000 0.000000 0.000000
vn -0.000000 0.000000 -1.000000
vn -0.000000 0.000000 -1.000000
vn -0.000000 0.000000 -1.000000
vn -0.000000 0.000000 -1.000000
s off
g group1 Wall_E_01:polySurface3
usemtl lambert6SG
f 43/87/113 44/88/114 38/89/115 35/90/116
f 46/93/117 45/94/118 40/95/119 41/96/120
f 44/99/121 46/100/122 41/101/123 38/102/124
f 42/105/125 37/106/126 36/107/127 39/108/128
f 45/109/129 43/110/130 35/111/131 40/112/132
f 40/115/133 35/116/134 38/117/135 41/118/136
f 44/88/137 43/87/138 36/91/139 37/92/140
f 46/100/141 44/99/142 37/103/143 42/104/144
f 45/94/145 46/93/146 42/97/147 39/98/148
f 43/110/149 45/109/150 39/113/151 36/114/152
