# This file uses centimeters as units for non-parametric coordinates.

mtllib End_01.mtl
g default
v -1.500000 3.150000 1.500000
v 1.500000 3.150000 1.500000
v -1.500000 3.450000 1.500000
v 1.500000 3.450000 1.500000
v -1.500000 3.450000 -1.500000
v 1.500000 3.450000 -1.500000
v -1.500000 3.150000 -1.500000
v 1.500000 3.150000 -1.500000
vt 0.375000 0.000000
vt 0.625000 0.000000
vt 0.375000 0.250000
vt 0.625000 0.250000
vt 0.375000 0.500000
vt 0.625000 0.500000
vt 0.375000 0.750000
vt 0.625000 0.750000
vt 0.375000 1.000000
vt 0.625000 1.000000
vt 0.875000 0.000000
vt 0.875000 0.250000
vt 0.125000 0.000000
vt 0.125000 0.250000
vn 0.000000 0.000000 1.000000
vn 0.000000 0.000000 1.000000
vn 0.000000 0.000000 1.000000
vn 0.000000 0.000000 1.000000
vn 0.000000 1.000000 0.000000
vn 0.000000 1.000000 0.000000
vn 0.000000 1.000000 0.000000
vn 0.000000 1.000000 0.000000
vn 0.000000 0.000000 -1.000000
vn 0.000000 0.000000 -1.000000
vn 0.000000 0.000000 -1.000000
vn 0.000000 0.000000 -1.000000
vn 0.000000 -1.000000 0.000000
vn 0.000000 -1.000000 0.000000
vn 0.000000 -1.000000 0.000000
vn 0.000000 -1.000000 0.000000
vn 1.000000 0.000000 0.000000
vn 1.000000 0.000000 0.000000
vn 1.000000 0.000000 0.000000
vn 1.000000 0.000000 0.000000
vn -1.000000 0.000000 0.000000
vn -1.000000 0.000000 0.000000
vn -1.000000 0.000000 0.000000
vn -1.000000 0.000000 0.000000
s off
g pCube4
usemtl lambert2SG
f 1/1/1 2/2/2 4/4/3 3/3/4
f 3/3/5 4/4/6 6/6/7 5/5/8
f 5/5/9 6/6/10 8/8/11 7/7/12
f 7/7/13 8/8/14 2/10/15 1/9/16
f 2/2/17 8/11/18 6/12/19 4/4/20
f 7/13/21 1/1/22 3/3/23 5/14/24
g default
v -1.500000 -0.150000 1.500000
v 1.500000 -0.150000 1.500000
v -1.500000 0.150000 1.500000
v 1.500000 0.150000 1.500000
v -1.500000 0.150000 -1.500000
v 1.500000 0.150000 -1.500000
v -1.500000 -0.150000 -1.500000
v 1.500000 -0.150000 -1.500000
vt 0.001868 0.498129
vt 0.001868 0.001992
vt 0.051481 0.001992
vt 0.051481 0.498129
vt 0.058699 0.001992
vt 0.554836 0.001992
vt 0.554836 0.498129
vt 0.058699 0.498129
vt 0.561229 0.498129
vt 0.561229 0.001992
vt 0.610843 0.001992
vt 0.610843 0.498129
vt 0.439618 0.501871
vt 0.935755 0.501871
vt 0.935755 0.998008
vt 0.439618 0.998008
vt 0.384252 0.998008
vt 0.384252 0.501871
vt 0.433865 0.501871
vt 0.433865 0.998008
vt 0.328886 0.998008
vt 0.328886 0.501871
vt 0.378499 0.501871
vt 0.378499 0.998008
vn 0.000000 0.000000 1.000000
vn 0.000000 0.000000 1.000000
vn 0.000000 0.000000 1.000000
vn 0.000000 0.000000 1.000000
vn 0.000000 1.000000 0.000000
vn 0.000000 1.000000 0.000000
vn 0.000000 1.000000 0.000000
vn 0.000000 1.000000 0.000000
vn 0.000000 0.000000 -1.000000
vn 0.000000 0.000000 -1.000000
vn 0.000000 0.000000 -1.000000
vn 0.000000 0.000000 -1.000000
vn 0.000000 -1.000000 0.000000
vn 0.000000 -1.000000 0.000000
vn 0.000000 -1.000000 0.000000
vn 0.000000 -1.000000 0.000000
vn 1.000000 0.000000 0.000000
vn 1.000000 0.000000 0.000000
vn 1.000000 0.000000 0.000000
vn 1.000000 0.000000 0.000000
vn -1.000000 0.000000 0.000000
vn -1.000000 0.000000 0.000000
vn -1.000000 0.000000 0.000000
vn -1.000000 0.000000 0.000000
s off
g pCube3 group1
usemtl lambert2SG
f 9/15/25 10/16/26 12/17/27 11/18/28
f 11/19/29 12/20/30 14/21/31 13/22/32
f 13/23/33 14/24/34 16/25/35 15/26/36
f 15/27/37 16/28/38 10/29/39 9/30/40
f 10/31/41 16/32/42 14/33/43 12/34/44
f 15/35/45 9/36/46 11/37/47 13/38/48
g default
v 1.000000 3.150000 1.000000
v 1.000000 3.150000 -1.000000
v 1.200000 0.150000 -1.200000
v 1.200000 0.150000 1.200000
v -1.500000 3.150000 1.000000
v -1.500000 0.150000 1.200000
v -1.500000 0.150000 1.500000
v -1.500000 3.150000 1.500000
v 1.500000 0.150000 1.500000
v 1.500000 3.150000 1.500000
v 1.500000 0.150000 -1.500000
v -1.500000 0.150000 -1.200000
v -1.500000 0.150000 -1.500000
v 1.500000 3.150000 -1.500000
v -1.500000 3.150000 -1.500000
v -1.500000 3.150000 -1.000000
v 1.200000 2.721429 -1.200000
v 1.200000 2.721430 1.200000
v -1.500000 2.721429 1.200000
v -1.500000 2.721429 1.500000
v 1.500000 2.721429 1.500000
v 1.500000 2.721429 -1.500000
v -1.500000 2.721429 -1.500000
v -1.500000 2.721429 -1.200000
vt 1.000000 1.000000
vt 1.000000 0.857143
vt 0.000000 0.857143
vt 0.000000 1.000000
vt 0.000000 -0.000000
vt 1.000000 -0.000000
vt 0.924400 0.261454
vt 0.976314 0.313368
vt 0.664831 0.313368
vt 0.664831 0.261454
vt 0.924400 0.053799
vt 0.976314 0.001885
vt 0.664831 0.001885
vt 0.664831 0.053799
vt 1.000000 0.857143
vt 0.000000 0.857143
vt 0.000000 1.000000
vt 1.000000 1.000000
vt 0.833333 1.000000
vt 0.900000 0.857143
vt 1.000000 0.857143
vt 1.000000 1.000000
vt -0.000000 1.000000
vt -0.000000 0.857143
vt 0.100000 0.857143
vt 0.166667 1.000000
vt 0.000000 0.857143
vt 0.000000 1.000000
vt 0.000000 0.857143
vt 0.900000 0.857143
vt 0.833333 1.000000
vt 0.000000 1.000000
vt 0.833333 1.000000
vt 0.900000 0.857143
vt 0.900000 -0.000000
vt 0.100000 -0.000000
vt -0.000000 -0.000000
vt 1.000000 -0.000000
vt 1.000000 -0.000000
vt 0.000000 -0.000000
vt 0.900000 -0.000000
vt 0.000000 -0.000000
vt 0.000000 -0.000000
vt 0.900000 -0.000000
vt 0.288683 0.944318
vt 0.288683 0.913170
vt 0.569018 0.913170
vt 0.600166 0.944318
vt 0.600166 0.632835
vt 0.569018 0.663983
vt 0.288683 0.663983
vt 0.288683 0.632835
vt 0.000678 0.998008
vt 0.000678 0.855720
vt 0.100280 0.855720
vt 0.166681 0.998008
vt 0.000678 0.001992
vt 0.100280 0.001992
vt 0.240288 0.855720
vt 0.339890 0.855720
vt 0.339890 0.998008
vt 0.173887 0.998008
vt 0.339890 0.001992
vt 0.240288 0.001992
vn -1.000000 0.000000 0.000000
vn -1.000000 0.000000 0.000000
vn -1.000000 0.000000 0.000000
vn -1.000000 0.000000 0.000000
vn 0.000000 0.000000 -1.000000
vn 0.000000 0.000000 -1.000000
vn 0.000000 0.000000 -1.000000
vn 0.000000 0.000000 -1.000000
vn 0.000000 1.000000 0.000000
vn 0.000000 1.000000 0.000000
vn 0.000000 1.000000 0.000000
vn 0.000000 1.000000 0.000000
vn 0.000000 1.000000 -0.000001
vn 0.000000 1.000000 -0.000001
vn 0.000000 1.000000 -0.000001
vn 0.000000 1.000000 -0.000001
vn 0.000000 1.000000 0.000000
vn 0.000000 1.000000 0.000000
vn 0.000000 1.000000 0.000000
vn 0.000000 1.000000 0.000000
vn -1.000000 0.000000 0.000000
vn -1.000000 0.000000 0.000000
vn -1.000000 0.000000 0.000000
vn -1.000000 0.000000 0.000000
vn -1.000000 0.000000 0.000000
vn -1.000000 0.000000 0.000000
vn -1.000000 0.000000 0.000000
vn -1.000000 0.000000 0.000000
vn 0.000000 0.000000 1.000000
vn 0.000000 0.000000 1.000000
vn 0.000000 0.000000 1.000000
vn 0.000000 0.000000 1.000000
vn 0.000000 0.000000 1.000000
vn 0.000000 0.000000 1.000000
vn 0.000000 0.000000 1.000000
vn 0.000000 0.000000 1.000000
vn 1.000000 0.000000 0.000000
vn 1.000000 0.000000 0.000000
vn 1.000000 0.000000 0.000000
vn 1.000000 0.000000 0.000000
vn 0.000000 -0.422886 -0.906183
vn 0.000000 -0.422886 -0.906183
vn 0.000000 -0.422886 -0.906183
vn 0.000000 -0.422886 -0.906183
vn -1.000000 0.000000 0.000000
vn -1.000000 0.000000 0.000000
vn -1.000000 0.000000 0.000000
vn -1.000000 0.000000 0.000000
vn -0.906183 -0.422886 0.000000
vn -0.906183 -0.422886 0.000000
vn -0.906183 -0.422886 0.000000
vn -0.906183 -0.422886 0.000000
vn 0.000000 -0.422886 0.906183
vn 0.000000 -0.422886 0.906183
vn 0.000000 -0.422886 0.906183
vn 0.000000 -0.422886 0.906183
vn -0.000000 0.000000 -1.000000
vn -0.000000 0.000000 -1.000000
vn -0.000000 0.000000 -1.000000
vn -0.000000 0.000000 -1.000000
vn 0.000000 -1.000000 0.000000
vn 0.000000 -1.000000 0.000000
vn 0.000000 -1.000000 0.000000
vn 0.000000 -1.000000 0.000000
vn 0.000000 0.000000 -1.000000
vn 0.000000 0.000000 -1.000000
vn 0.000000 0.000000 -1.000000
vn 0.000000 0.000000 -1.000000
vn 0.000000 0.000000 1.000000
vn 0.000000 0.000000 1.000000
vn 0.000000 0.000000 1.000000
vn 0.000000 0.000000 1.000000
vn -1.000000 0.000000 0.000000
vn -1.000000 0.000000 0.000000
vn -1.000000 0.000000 0.000000
vn -1.000000 0.000000 0.000000
vn 0.000000 -1.000000 0.000000
vn 0.000000 -1.000000 0.000000
vn 0.000000 -1.000000 0.000000
vn 0.000000 -1.000000 0.000000
vn 1.000000 0.000000 0.000000
vn 1.000000 0.000000 0.000000
vn 1.000000 0.000000 0.000000
vn 1.000000 0.000000 0.000000
vn 0.000000 -1.000000 0.000000
vn 0.000000 -1.000000 0.000000
vn 0.000000 -1.000000 0.000000
vn 0.000000 -1.000000 0.000000
s off
g group1 polySurface2
usemtl lambert3SG
f 31/91/49 39/92/50 40/93/51 32/94/52
f 30/39/53 38/40/54 39/41/55 31/42/56
f 18/45/57 30/46/58 31/47/59 32/48/60
f 24/51/61 26/50/62 17/49/63 21/52/64
f 30/46/65 18/45/66 17/49/67 26/50/68
f 35/97/69 36/98/70 24/99/71 21/100/72
f 23/101/73 36/98/74 35/97/75 22/102/76
f 23/43/77 25/44/78 37/53/79 36/54/80
f 24/55/81 36/54/82 37/53/83 26/56/84
f 38/59/85 30/60/86 26/61/87 37/62/88
f 17/57/89 34/58/90 35/65/91 21/66/92
f 29/95/93 28/96/94 40/93/95 39/92/96
f 34/63/97 17/64/98 18/71/99 33/72/100
f 40/67/101 33/68/102 18/69/103 32/70/104
f 39/41/105 38/40/106 27/77/107 29/78/108
f 23/83/109 22/84/110 20/85/111 25/86/112
f 20/79/113 22/80/114 35/65/115 34/58/116
f 40/67/117 28/81/118 19/82/119 33/68/120
f 33/72/121 19/73/122 20/74/123 34/63/124
f 27/87/125 25/86/126 20/85/127 19/88/128
f 37/62/129 25/75/130 27/76/131 38/59/132
f 27/87/133 19/88/134 28/89/135 29/90/136
