# This file uses centimeters as units for non-parametric coordinates.

mtllib Gold-Coin.mtl
g default
v -1.150547 0.435682 2.224516
v -1.111633 0.617120 2.140658
v -1.051023 0.761110 2.010046
v -0.974649 0.853557 1.845465
v -0.889988 0.885412 1.663026
v -0.805328 0.853557 1.480587
v -0.728954 0.761110 1.316007
v -0.668344 0.617120 1.185395
v -0.629430 0.435682 1.101537
v -0.616021 0.234557 1.072641
v -0.629430 0.033431 1.101537
v -0.668344 -0.148007 1.185395
v -0.728955 -0.291995 1.316007
v -0.805328 -0.384442 1.480587
v -0.889989 -0.416299 1.663026
v -0.974649 -0.384444 1.845465
v -1.051023 -0.291997 2.010046
v -1.111633 -0.148007 2.140658
v -1.150547 0.033431 2.224516
v -1.163956 0.234556 2.253411
v -1.573963 0.741192 3.064599
v -1.475938 1.198234 2.853361
v -1.323260 1.560945 2.524349
v -1.130875 1.793819 2.109770
v -0.917615 1.874063 1.650206
v -0.704354 1.793819 1.190642
v -0.511969 1.560945 0.776063
v -0.359292 1.198234 0.447052
v -0.261267 0.741192 0.235813
v -0.227490 0.234557 0.163025
v -0.261267 -0.272077 0.235814
v -0.359293 -0.729119 0.447053
v -0.511970 -1.091830 0.776064
v -0.704355 -1.324705 1.190643
v -0.917615 -1.404949 1.650207
v -1.130875 -1.324706 2.109771
v -1.323260 -1.091832 2.524349
v -1.475938 -0.729121 2.853361
v -1.573963 -0.272079 3.064599
v -1.607740 0.234556 3.137387
v -1.780679 0.837932 3.296907
v -1.663936 1.382246 3.045333
v -1.482105 1.814216 2.653497
v -1.252985 2.091558 2.159755
v -0.999003 2.187123 1.612438
v -0.745020 2.091558 1.065121
v -0.515900 1.814217 0.571379
v -0.334069 1.382247 0.179543
v -0.217326 0.837933 -0.072031
v -0.177099 0.234557 -0.158717
v -0.217327 -0.368818 -0.072029
v -0.334070 -0.913132 0.179545
v -0.515901 -1.345101 0.571381
v -0.745021 -1.622443 1.065122
v -0.999003 -1.718010 1.612439
v -1.252985 -1.622444 2.159755
v -1.482105 -1.345103 2.653497
v -1.663936 -0.913133 3.045333
v -1.780679 -0.368820 3.296907
v -1.820906 0.234556 3.383593
v -1.976372 0.897137 3.406973
v -1.848174 1.494860 3.130713
v -1.648501 1.969215 2.700429
v -1.396899 2.273771 2.158240
v -1.117996 2.378713 1.557219
v -0.839092 2.273771 0.956198
v -0.587490 1.969216 0.414010
v -0.387817 1.494861 -0.016274
v -0.259619 0.897138 -0.292533
v -0.215445 0.234558 -0.387725
v -0.259620 -0.428023 -0.292531
v -0.387818 -1.025745 -0.016272
v -0.587491 -1.500101 0.414011
v -0.839093 -1.804656 0.956199
v -1.117996 -1.909600 1.557220
v -1.396899 -1.804657 2.158241
v -1.648501 -1.500102 2.700429
v -1.848174 -1.025747 3.130713
v -1.976372 -0.428024 3.406972
v -2.020545 0.234556 3.502164
v -2.018665 0.837932 3.186470
v -1.901922 1.382246 2.934896
v -1.720091 1.814216 2.543060
v -1.490971 2.091558 2.049318
v -1.236989 2.187123 1.502001
v -0.983006 2.091558 0.954684
v -0.753886 1.814217 0.460942
v -0.572055 1.382247 0.069106
v -0.455312 0.837933 -0.182468
v -0.415086 0.234557 -0.269154
v -0.455313 -0.368818 -0.182467
v -0.572056 -0.913132 0.069108
v -0.753887 -1.345101 0.460943
v -0.983007 -1.622443 0.954685
v -1.236989 -1.718010 1.502002
v -1.490971 -1.622444 2.049318
v -1.720091 -1.345103 2.543060
v -1.901922 -0.913133 2.934895
v -2.018665 -0.368820 3.186469
v -2.058892 0.234556 3.273156
v -1.839494 0.636807 2.587213
v -1.761665 0.999683 2.419496
v -1.640445 1.287663 2.158272
v -1.487698 1.472557 1.829111
v -1.318376 1.536268 1.464233
v -1.149055 1.472557 1.099355
v -0.996308 1.287663 0.770193
v -0.875087 0.999683 0.508970
v -0.797259 0.636808 0.341254
v -0.770441 0.234557 0.283463
v -0.797259 -0.167694 0.341254
v -0.875088 -0.530569 0.508971
v -0.996308 -0.818548 0.770194
v -1.149055 -1.003443 1.099355
v -1.318377 -1.067154 1.464233
v -1.487698 -1.003444 1.829111
v -1.640445 -0.818550 2.158272
v -1.761665 -0.530570 2.419496
v -1.839494 -0.167695 2.587212
v -1.866312 0.234556 2.645003
v -1.606561 0.435682 2.012903
v -1.567647 0.617120 1.929045
v -1.507037 0.761110 1.798433
v -1.430663 0.853557 1.633852
v -1.346003 0.885412 1.451413
v -1.261342 0.853557 1.268974
v -1.184969 0.761110 1.104394
v -1.124358 0.617120 0.973782
v -1.085444 0.435682 0.889924
v -1.072035 0.234557 0.861028
v -1.085444 0.033431 0.889924
v -1.124358 -0.148007 0.973782
v -1.184969 -0.291995 1.104394
v -1.261342 -0.384442 1.268974
v -1.346003 -0.416299 1.451413
v -1.430663 -0.384444 1.633852
v -1.507037 -0.291997 1.798433
v -1.567647 -0.148007 1.929045
v -1.606561 0.033431 2.012903
v -1.619970 0.234556 2.041798
v -0.905232 0.234557 1.655953
v -1.330760 0.234557 1.458487
vt 0.609228 0.544180
vt 0.592302 0.577399
vt 0.738743 0.683794
vt 0.781379 0.600115
vt 0.565939 0.603762
vt 0.672334 0.750202
vt 0.532720 0.620688
vt 0.588656 0.792838
vt 0.495897 0.626520
vt 0.495897 0.807530
vt 0.459073 0.620688
vt 0.403138 0.792838
vt 0.425854 0.603762
vt 0.319459 0.750202
vt 0.399491 0.577399
vt 0.253051 0.683794
vt 0.382565 0.544180
vt 0.210414 0.600115
vt 0.376733 0.507356
vt 0.195723 0.507356
vt 0.382565 0.470532
vt 0.210414 0.414597
vt 0.399491 0.437313
vt 0.253051 0.330918
vt 0.425854 0.410951
vt 0.319459 0.264510
vt 0.459073 0.394025
vt 0.403138 0.221874
vt 0.495897 0.388192
vt 0.495897 0.207182
vt 0.532720 0.394024
vt 0.588656 0.221874
vt 0.565939 0.410950
vt 0.672334 0.264510
vt 0.592302 0.437313
vt 0.738742 0.330918
vt 0.609228 0.470532
vt 0.781379 0.414597
vt 0.615060 0.507356
vt 0.796071 0.507356
vt 0.785114 0.717484
vt 0.835891 0.617827
vt 0.706025 0.796573
vt 0.606368 0.847351
vt 0.495897 0.864848
vt 0.385426 0.847351
vt 0.285768 0.796573
vt 0.206680 0.717484
vt 0.155902 0.617827
vt 0.138405 0.507356
vt 0.155902 0.396885
vt 0.206680 0.297228
vt 0.285769 0.218140
vt 0.385426 0.167362
vt 0.495897 0.149864
vt 0.606368 0.167361
vt 0.706025 0.218139
vt 0.785113 0.297228
vt 0.835891 0.396885
vt 0.853388 0.507356
vt 0.813492 0.738102
vt 0.869253 0.628667
vt 0.726643 0.824951
vt 0.617207 0.880712
vt 0.495897 0.899925
vt 0.374586 0.880712
vt 0.265150 0.824952
vt 0.178301 0.738103
vt 0.122541 0.628667
vt 0.103327 0.507356
vt 0.122541 0.386046
vt 0.178302 0.276610
vt 0.265150 0.189761
vt 0.374586 0.134001
vt 0.495897 0.114787
vt 0.617207 0.134000
vt 0.726643 0.189761
vt 0.813492 0.276610
vt 0.869252 0.386045
vt 0.888466 0.507356
vt 0.785114 0.717484
vt 0.835891 0.617827
vt 0.706025 0.796573
vt 0.606368 0.847351
vt 0.495897 0.864848
vt 0.385426 0.847351
vt 0.285768 0.796573
vt 0.206680 0.717484
vt 0.155902 0.617827
vt 0.138405 0.507356
vt 0.155902 0.396885
vt 0.206680 0.297228
vt 0.285769 0.218140
vt 0.385426 0.167362
vt 0.495897 0.149864
vt 0.606368 0.167361
vt 0.706025 0.218139
vt 0.785113 0.297228
vt 0.835891 0.396885
vt 0.853388 0.507356
vt 0.688708 0.647442
vt 0.722560 0.581003
vt 0.635982 0.700167
vt 0.569544 0.734019
vt 0.495897 0.745684
vt 0.422249 0.734019
vt 0.355811 0.700167
vt 0.303085 0.647442
vt 0.269234 0.581003
vt 0.257569 0.507356
vt 0.269234 0.433709
vt 0.303086 0.367271
vt 0.355811 0.314545
vt 0.422249 0.280693
vt 0.495897 0.269028
vt 0.569544 0.280693
vt 0.635982 0.314545
vt 0.688708 0.367271
vt 0.722560 0.433709
vt 0.734224 0.507356
vt 0.592302 0.577399
vt 0.609228 0.544180
vt 0.565939 0.603762
vt 0.532720 0.620688
vt 0.495897 0.626520
vt 0.459073 0.620688
vt 0.425854 0.603762
vt 0.399491 0.577399
vt 0.382565 0.544180
vt 0.376733 0.507356
vt 0.382565 0.470532
vt 0.399491 0.437313
vt 0.425854 0.410951
vt 0.459073 0.394025
vt 0.495897 0.388192
vt 0.532720 0.394024
vt 0.565939 0.410950
vt 0.592302 0.437313
vt 0.609228 0.470532
vt 0.615060 0.507356
vt 0.495897 0.507356
vt 0.495897 0.507356
vn 0.897524 0.007195 0.440906
vn 0.898916 0.013685 0.437906
vn 0.856866 0.074173 0.510175
vn 0.849321 0.038995 0.526434
vn 0.901085 0.018836 0.433234
vn 0.868618 0.102090 0.484852
vn 0.903817 0.022143 0.427347
vn 0.883425 0.120014 0.452942
vn 0.906845 0.023282 0.420821
vn 0.899840 0.126191 0.417570
vn 0.909873 0.022143 0.414295
vn 0.916254 0.120014 0.382198
vn 0.912606 0.018836 0.408407
vn 0.931062 0.102090 0.350288
vn 0.914774 0.013685 0.403735
vn 0.942813 0.074173 0.324965
vn 0.916166 0.007195 0.400735
vn 0.950358 0.038995 0.308706
vn 0.916645 -0.000000 0.399702
vn 0.952958 -0.000000 0.303103
vn 0.916166 -0.007195 0.400735
vn 0.950358 -0.038995 0.308706
vn 0.914774 -0.013685 0.403735
vn 0.942813 -0.074173 0.324965
vn 0.912606 -0.018836 0.408407
vn 0.931062 -0.102090 0.350288
vn 0.909873 -0.022142 0.414295
vn 0.916254 -0.120014 0.382198
vn 0.906845 -0.023282 0.420821
vn 0.899840 -0.126191 0.417570
vn 0.903817 -0.022143 0.427347
vn 0.883425 -0.120014 0.452942
vn 0.901085 -0.018836 0.433234
vn 0.868618 -0.102090 0.484852
vn 0.898916 -0.013685 0.437906
vn 0.856866 -0.074173 0.510175
vn 0.897525 -0.007195 0.440906
vn 0.849321 -0.038995 0.526434
vn 0.897045 -0.000000 0.441940
vn 0.846722 -0.000000 0.532036
vn 0.778161 0.161941 0.606828
vn 0.761689 0.085137 0.642325
vn 0.803818 0.222893 0.551539
vn 0.836147 0.262026 0.481871
vn 0.871985 0.275510 0.404644
vn 0.907822 0.262026 0.327416
vn 0.940151 0.222893 0.257749
vn 0.965808 0.161941 0.202460
vn 0.982281 0.085137 0.166962
vn 0.987957 -0.000000 0.154731
vn 0.982281 -0.085138 0.166963
vn 0.965808 -0.161941 0.202460
vn 0.940151 -0.222893 0.257749
vn 0.907822 -0.262026 0.327416
vn 0.871985 -0.275511 0.404644
vn 0.836147 -0.262026 0.481871
vn 0.803818 -0.222893 0.551539
vn 0.778161 -0.161941 0.606828
vn 0.761689 -0.085137 0.642325
vn 0.756013 -0.000000 0.654557
vn 0.522289 0.174581 0.834707
vn 0.556067 0.332073 0.761917
vn -0.340543 0.587786 0.733852
vn -0.400333 0.309016 0.862695
vn 0.608678 0.457060 0.648543
vn -0.247419 0.809017 0.533175
vn 0.674972 0.537306 0.505683
vn -0.130076 0.951056 0.280307
vn 0.748459 0.564957 0.347322
vn -0.000000 1.000000 0.000000
vn 0.821947 0.537306 0.188961
vn 0.130076 0.951057 -0.280306
vn 0.888241 0.457060 0.046101
vn 0.247419 0.809017 -0.533175
vn 0.940852 0.332073 -0.067273
vn 0.340544 0.587785 -0.733852
vn 0.974630 0.174581 -0.140063
vn 0.400333 0.309017 -0.862695
vn 0.986269 -0.000001 -0.165145
vn 0.420935 -0.000001 -0.907091
vn 0.974630 -0.174582 -0.140064
vn 0.400332 -0.309018 -0.862695
vn 0.940851 -0.332074 -0.067273
vn 0.340543 -0.587785 -0.733852
vn 0.888241 -0.457060 0.046101
vn 0.247419 -0.809017 -0.533175
vn 0.821947 -0.537306 0.188960
vn 0.130076 -0.951056 -0.280307
vn 0.748460 -0.564957 0.347321
vn 0.000000 -1.000000 -0.000001
vn 0.674972 -0.537306 0.505683
vn -0.130076 -0.951057 0.280307
vn 0.608678 -0.457060 0.648543
vn -0.247419 -0.809017 0.533175
vn 0.556067 -0.332073 0.761917
vn -0.340543 -0.587785 0.733852
vn 0.522288 -0.174581 0.834707
vn -0.400333 -0.309017 0.862695
vn 0.510649 -0.000001 0.859789
vn -0.420935 -0.000001 0.907091
vn -0.940852 0.332073 0.067272
vn -0.974630 0.174581 0.140062
vn -0.888241 0.457060 -0.046101
vn -0.821947 0.537305 -0.188961
vn -0.748459 0.564957 -0.347322
vn -0.674972 0.537306 -0.505683
vn -0.608678 0.457060 -0.648543
vn -0.556067 0.332073 -0.761917
vn -0.522289 0.174581 -0.834707
vn -0.510649 -0.000001 -0.859789
vn -0.522288 -0.174582 -0.834707
vn -0.556066 -0.332074 -0.761917
vn -0.608678 -0.457060 -0.648543
vn -0.674972 -0.537306 -0.505684
vn -0.748459 -0.564957 -0.347323
vn -0.821947 -0.537306 -0.188961
vn -0.888240 -0.457060 -0.046101
vn -0.940852 -0.332073 0.067273
vn -0.974630 -0.174581 0.140063
vn -0.986269 -0.000001 0.165145
vn -0.953264 0.042200 -0.299178
vn -0.945099 0.080270 -0.316774
vn -0.938377 0.063028 -0.339817
vn -0.944789 0.033136 -0.326001
vn -0.932381 0.110482 -0.344179
vn -0.928392 0.086751 -0.361335
vn -0.916356 0.129880 -0.378711
vn -0.915809 0.101982 -0.388451
vn -0.898593 0.136564 -0.416991
vn -0.901861 0.107230 -0.418508
vn -0.880829 0.129880 -0.455271
vn -0.887913 0.101982 -0.448565
vn -0.864804 0.110482 -0.489803
vn -0.875330 0.086751 -0.475680
vn -0.852087 0.080270 -0.517209
vn -0.865344 0.063028 -0.497199
vn -0.843922 0.042201 -0.534804
vn -0.858933 0.033136 -0.511015
vn -0.841108 -0.000000 -0.540867
vn -0.856724 -0.000000 -0.515775
vn -0.843922 -0.042201 -0.534804
vn -0.858933 -0.033136 -0.511015
vn -0.852087 -0.080270 -0.517209
vn -0.865344 -0.063028 -0.497199
vn -0.864804 -0.110483 -0.489804
vn -0.875330 -0.086751 -0.475680
vn -0.880829 -0.129880 -0.455271
vn -0.887913 -0.101982 -0.448565
vn -0.898593 -0.136564 -0.416991
vn -0.901861 -0.107230 -0.418508
vn -0.916356 -0.129880 -0.378711
vn -0.915809 -0.101982 -0.388451
vn -0.932381 -0.110482 -0.344179
vn -0.928392 -0.086751 -0.361335
vn -0.945099 -0.080270 -0.316773
vn -0.938377 -0.063028 -0.339817
vn -0.953264 -0.042201 -0.299178
vn -0.944789 -0.033136 -0.326001
vn -0.956077 -0.000000 -0.293115
vn -0.946998 -0.000000 -0.321240
vn -0.917280 0.018349 -0.397821
vn -0.919146 0.009647 -0.393799
vn -0.914373 0.025255 -0.404086
vn -0.910709 0.029689 -0.411979
vn -0.906649 0.031217 -0.420730
vn -0.902588 0.029689 -0.429480
vn -0.898925 0.025255 -0.437374
vn -0.896018 0.018349 -0.443638
vn -0.894152 0.009647 -0.447660
vn -0.893509 -0.000000 -0.449046
vn -0.894152 -0.009647 -0.447660
vn -0.896018 -0.018349 -0.443638
vn -0.898925 -0.025255 -0.437374
vn -0.902588 -0.029689 -0.429480
vn -0.906649 -0.031217 -0.420730
vn -0.910709 -0.029689 -0.411979
vn -0.914373 -0.025255 -0.404086
vn -0.917280 -0.018349 -0.397821
vn -0.919146 -0.009647 -0.393799
vn -0.919789 -0.000000 -0.392413
vn 0.907091 -0.000000 0.420935
vn -0.907091 -0.000000 -0.420935
s 1
g pCylinder1
usemtl lambert2SG
f 1/1/1 2/2/2 22/3/3 21/4/4
f 2/2/2 3/5/5 23/6/6 22/3/3
f 3/5/5 4/7/7 24/8/8 23/6/6
f 4/7/7 5/9/9 25/10/10 24/8/8
f 5/9/9 6/11/11 26/12/12 25/10/10
f 6/11/11 7/13/13 27/14/14 26/12/12
f 7/13/13 8/15/15 28/16/16 27/14/14
f 8/15/15 9/17/17 29/18/18 28/16/16
f 9/17/17 10/19/19 30/20/20 29/18/18
f 10/19/19 11/21/21 31/22/22 30/20/20
f 11/21/21 12/23/23 32/24/24 31/22/22
f 12/23/23 13/25/25 33/26/26 32/24/24
f 13/25/25 14/27/27 34/28/28 33/26/26
f 14/27/27 15/29/29 35/30/30 34/28/28
f 15/29/29 16/31/31 36/32/32 35/30/30
f 16/31/31 17/33/33 37/34/34 36/32/32
f 17/33/33 18/35/35 38/36/36 37/34/34
f 18/35/35 19/37/37 39/38/38 38/36/36
f 19/37/37 20/39/39 40/40/40 39/38/38
f 20/39/39 1/1/1 21/4/4 40/40/40
f 21/4/4 22/3/3 42/41/41 41/42/42
f 22/3/3 23/6/6 43/43/43 42/41/41
f 23/6/6 24/8/8 44/44/44 43/43/43
f 24/8/8 25/10/10 45/45/45 44/44/44
f 25/10/10 26/12/12 46/46/46 45/45/45
f 26/12/12 27/14/14 47/47/47 46/46/46
f 27/14/14 28/16/16 48/48/48 47/47/47
f 28/16/16 29/18/18 49/49/49 48/48/48
f 29/18/18 30/20/20 50/50/50 49/49/49
f 30/20/20 31/22/22 51/51/51 50/50/50
f 31/22/22 32/24/24 52/52/52 51/51/51
f 32/24/24 33/26/26 53/53/53 52/52/52
f 33/26/26 34/28/28 54/54/54 53/53/53
f 34/28/28 35/30/30 55/55/55 54/54/54
f 35/30/30 36/32/32 56/56/56 55/55/55
f 36/32/32 37/34/34 57/57/57 56/56/56
f 37/34/34 38/36/36 58/58/58 57/57/57
f 38/36/36 39/38/38 59/59/59 58/58/58
f 39/38/38 40/40/40 60/60/60 59/59/59
f 40/40/40 21/4/4 41/42/42 60/60/60
s 2
f 41/42/61 42/41/62 62/61/63 61/62/64
f 42/41/62 43/43/65 63/63/66 62/61/63
f 43/43/65 44/44/67 64/64/68 63/63/66
f 44/44/67 45/45/69 65/65/70 64/64/68
f 45/45/69 46/46/71 66/66/72 65/65/70
f 46/46/71 47/47/73 67/67/74 66/66/72
f 47/47/73 48/48/75 68/68/76 67/67/74
f 48/48/75 49/49/77 69/69/78 68/68/76
f 49/49/77 50/50/79 70/70/80 69/69/78
f 50/50/79 51/51/81 71/71/82 70/70/80
f 51/51/81 52/52/83 72/72/84 71/71/82
f 52/52/83 53/53/85 73/73/86 72/72/84
f 53/53/85 54/54/87 74/74/88 73/73/86
f 54/54/87 55/55/89 75/75/90 74/74/88
f 55/55/89 56/56/91 76/76/92 75/75/90
f 56/56/91 57/57/93 77/77/94 76/76/92
f 57/57/93 58/58/95 78/78/96 77/77/94
f 58/58/95 59/59/97 79/79/98 78/78/96
f 59/59/97 60/60/99 80/80/100 79/79/98
f 60/60/99 41/42/61 61/62/64 80/80/100
f 61/62/64 62/61/63 82/81/101 81/82/102
f 62/61/63 63/63/66 83/83/103 82/81/101
f 63/63/66 64/64/68 84/84/104 83/83/103
f 64/64/68 65/65/70 85/85/105 84/84/104
f 65/65/70 66/66/72 86/86/106 85/85/105
f 66/66/72 67/67/74 87/87/107 86/86/106
f 67/67/74 68/68/76 88/88/108 87/87/107
f 68/68/76 69/69/78 89/89/109 88/88/108
f 69/69/78 70/70/80 90/90/110 89/89/109
f 70/70/80 71/71/82 91/91/111 90/90/110
f 71/71/82 72/72/84 92/92/112 91/91/111
f 72/72/84 73/73/86 93/93/113 92/92/112
f 73/73/86 74/74/88 94/94/114 93/93/113
f 74/74/88 75/75/90 95/95/115 94/94/114
f 75/75/90 76/76/92 96/96/116 95/95/115
f 76/76/92 77/77/94 97/97/117 96/96/116
f 77/77/94 78/78/96 98/98/118 97/97/117
f 78/78/96 79/79/98 99/99/119 98/98/118
f 79/79/98 80/80/100 100/100/120 99/99/119
f 80/80/100 61/62/64 81/82/102 100/100/120
s 3
f 81/82/121 82/81/122 102/101/123 101/102/124
f 82/81/122 83/83/125 103/103/126 102/101/123
f 83/83/125 84/84/127 104/104/128 103/103/126
f 84/84/127 85/85/129 105/105/130 104/104/128
f 85/85/129 86/86/131 106/106/132 105/105/130
f 86/86/131 87/87/133 107/107/134 106/106/132
f 87/87/133 88/88/135 108/108/136 107/107/134
f 88/88/135 89/89/137 109/109/138 108/108/136
f 89/89/137 90/90/139 110/110/140 109/109/138
f 90/90/139 91/91/141 111/111/142 110/110/140
f 91/91/141 92/92/143 112/112/144 111/111/142
f 92/92/143 93/93/145 113/113/146 112/112/144
f 93/93/145 94/94/147 114/114/148 113/113/146
f 94/94/147 95/95/149 115/115/150 114/114/148
f 95/95/149 96/96/151 116/116/152 115/115/150
f 96/96/151 97/97/153 117/117/154 116/116/152
f 97/97/153 98/98/155 118/118/156 117/117/154
f 98/98/155 99/99/157 119/119/158 118/118/156
f 99/99/157 100/100/159 120/120/160 119/119/158
f 100/100/159 81/82/121 101/102/124 120/120/160
f 101/102/124 102/101/123 122/121/161 121/122/162
f 102/101/123 103/103/126 123/123/163 122/121/161
f 103/103/126 104/104/128 124/124/164 123/123/163
f 104/104/128 105/105/130 125/125/165 124/124/164
f 105/105/130 106/106/132 126/126/166 125/125/165
f 106/106/132 107/107/134 127/127/167 126/126/166
f 107/107/134 108/108/136 128/128/168 127/127/167
f 108/108/136 109/109/138 129/129/169 128/128/168
f 109/109/138 110/110/140 130/130/170 129/129/169
f 110/110/140 111/111/142 131/131/171 130/130/170
f 111/111/142 112/112/144 132/132/172 131/131/171
f 112/112/144 113/113/146 133/133/173 132/132/172
f 113/113/146 114/114/148 134/134/174 133/133/173
f 114/114/148 115/115/150 135/135/175 134/134/174
f 115/115/150 116/116/152 136/136/176 135/135/175
f 116/116/152 117/117/154 137/137/177 136/136/176
f 117/117/154 118/118/156 138/138/178 137/137/177
f 118/118/156 119/119/158 139/139/179 138/138/178
f 119/119/158 120/120/160 140/140/180 139/139/179
f 120/120/160 101/102/124 121/122/162 140/140/180
s 1
f 2/2/2 1/1/1 141/141/181
f 3/5/5 2/2/2 141/141/181
f 4/7/7 3/5/5 141/141/181
f 5/9/9 4/7/7 141/141/181
f 6/11/11 5/9/9 141/141/181
f 7/13/13 6/11/11 141/141/181
f 8/15/15 7/13/13 141/141/181
f 9/17/17 8/15/15 141/141/181
f 10/19/19 9/17/17 141/141/181
f 11/21/21 10/19/19 141/141/181
f 12/23/23 11/21/21 141/141/181
f 13/25/25 12/23/23 141/141/181
f 14/27/27 13/25/25 141/141/181
f 15/29/29 14/27/27 141/141/181
f 16/31/31 15/29/29 141/141/181
f 17/33/33 16/31/31 141/141/181
f 18/35/35 17/33/33 141/141/181
f 19/37/37 18/35/35 141/141/181
f 20/39/39 19/37/37 141/141/181
f 1/1/1 20/39/39 141/141/181
s 3
f 121/122/162 122/121/161 142/142/182
f 122/121/161 123/123/163 142/142/182
f 123/123/163 124/124/164 142/142/182
f 124/124/164 125/125/165 142/142/182
f 125/125/165 126/126/166 142/142/182
f 126/126/166 127/127/167 142/142/182
f 127/127/167 128/128/168 142/142/182
f 128/128/168 129/129/169 142/142/182
f 129/129/169 130/130/170 142/142/182
f 130/130/170 131/131/171 142/142/182
f 131/131/171 132/132/172 142/142/182
f 132/132/172 133/133/173 142/142/182
f 133/133/173 134/134/174 142/142/182
f 134/134/174 135/135/175 142/142/182
f 135/135/175 136/136/176 142/142/182
f 136/136/176 137/137/177 142/142/182
f 137/137/177 138/138/178 142/142/182
f 138/138/178 139/139/179 142/142/182
f 139/139/179 140/140/180 142/142/182
f 140/140/180 121/122/162 142/142/182
