# This file uses centimeters as units for non-parametric coordinates.

mtllib Hall_01.mtl
g default
v -1.500000 3.150000 1.500000
v 1.500000 3.150000 1.500000
v -1.500000 3.450000 1.500000
v 1.500000 3.450000 1.500000
v -1.500000 3.450000 -1.500000
v 1.500000 3.450000 -1.500000
v -1.500000 3.150000 -1.500000
v 1.500000 3.150000 -1.500000
vt 0.375000 0.000000
vt 0.625000 0.000000
vt 0.375000 0.250000
vt 0.625000 0.250000
vt 0.375000 0.500000
vt 0.625000 0.500000
vt 0.375000 0.750000
vt 0.625000 0.750000
vt 0.375000 1.000000
vt 0.625000 1.000000
vt 0.875000 0.000000
vt 0.875000 0.250000
vt 0.125000 0.000000
vt 0.125000 0.250000
vn 0.000000 0.000000 1.000000
vn 0.000000 0.000000 1.000000
vn 0.000000 0.000000 1.000000
vn 0.000000 0.000000 1.000000
vn 0.000000 1.000000 0.000000
vn 0.000000 1.000000 0.000000
vn 0.000000 1.000000 0.000000
vn 0.000000 1.000000 0.000000
vn 0.000000 0.000000 -1.000000
vn 0.000000 0.000000 -1.000000
vn 0.000000 0.000000 -1.000000
vn 0.000000 0.000000 -1.000000
vn 0.000000 -1.000000 0.000000
vn 0.000000 -1.000000 0.000000
vn 0.000000 -1.000000 0.000000
vn 0.000000 -1.000000 0.000000
vn 1.000000 0.000000 0.000000
vn 1.000000 0.000000 0.000000
vn 1.000000 0.000000 0.000000
vn 1.000000 0.000000 0.000000
vn -1.000000 0.000000 0.000000
vn -1.000000 0.000000 0.000000
vn -1.000000 0.000000 0.000000
vn -1.000000 0.000000 0.000000
s off
g pCube5
usemtl lambert2SG
f 1/1/1 2/2/2 4/4/3 3/3/4
f 3/3/5 4/4/6 6/6/7 5/5/8
f 5/5/9 6/6/10 8/8/11 7/7/12
f 7/7/13 8/8/14 2/10/15 1/9/16
f 2/2/17 8/11/18 6/12/19 4/4/20
f 7/13/21 1/1/22 3/3/23 5/14/24
g default
v -1.500000 0.150000 1.200000
v 1.500000 0.150000 1.200000
v -1.500000 0.150000 1.500000
v 1.500000 0.150000 1.500000
v -1.500000 3.150000 1.500000
v 1.500000 3.150000 1.500000
v -1.500000 3.150000 1.000000
v 1.500000 3.150000 1.000000
v 1.500000 2.721428 1.500000
v -1.500000 2.721428 1.500000
v 1.500000 2.721428 1.200000
v -1.500000 2.721428 1.200000
vt 0.553777 0.498110
vt 0.504165 0.498110
vt 0.504165 0.001992
vt 0.553777 0.001992
vt 0.003062 0.857275
vt 0.999383 0.857275
vt 0.999383 0.999607
vt 0.003062 0.999607
vt 0.003062 0.003286
vt 0.999383 0.003286
vt 0.443326 0.998008
vt 0.360640 0.998008
vt 0.360640 0.501890
vt 0.443326 0.501890
vt 0.001062 0.855849
vt 0.995834 0.855849
vt 0.995834 0.997960
vt 0.001062 0.997960
vt 0.001062 0.003188
vt 0.995834 0.003188
vt 0.272143 0.927134
vt 0.321755 0.927134
vt 0.354829 0.998008
vt 0.272143 0.998008
vt 0.272143 0.501890
vt 0.321755 0.501890
vt 0.216720 0.927134
vt 0.266332 0.927134
vt 0.266332 0.998008
vt 0.183646 0.998008
vt 0.216720 0.501890
vt 0.266332 0.501890
vn 0.000000 -1.000000 0.000000
vn 0.000000 -1.000000 0.000000
vn 0.000000 -1.000000 0.000000
vn 0.000000 -1.000000 0.000000
vn 0.000000 0.000000 1.000000
vn 0.000000 0.000000 1.000000
vn 0.000000 0.000000 1.000000
vn 0.000000 0.000000 1.000000
vn 0.000000 1.000000 0.000000
vn 0.000000 1.000000 0.000000
vn 0.000000 1.000000 0.000000
vn 0.000000 1.000000 0.000000
vn 0.000000 -0.422885 -0.906183
vn 0.000000 -0.422885 -0.906183
vn 0.000000 -0.422885 -0.906183
vn 0.000000 -0.422885 -0.906183
vn 1.000000 0.000000 0.000000
vn 1.000000 0.000000 0.000000
vn 1.000000 0.000000 0.000000
vn 1.000000 0.000000 0.000000
vn -1.000000 0.000000 0.000000
vn -1.000000 0.000000 0.000000
vn -1.000000 0.000000 0.000000
vn -1.000000 0.000000 0.000000
vn 1.000000 0.000000 0.000000
vn 1.000000 0.000000 0.000000
vn 1.000000 0.000000 0.000000
vn 1.000000 0.000000 0.000000
vn 0.000000 0.000000 -1.000000
vn 0.000000 0.000000 -1.000000
vn 0.000000 0.000000 -1.000000
vn 0.000000 0.000000 -1.000000
vn -1.000000 0.000000 0.000000
vn -1.000000 0.000000 0.000000
vn -1.000000 0.000000 0.000000
vn -1.000000 0.000000 0.000000
vn 0.000000 0.000000 1.000000
vn 0.000000 0.000000 1.000000
vn 0.000000 0.000000 1.000000
vn 0.000000 0.000000 1.000000
s off
g pCube2 group1
usemtl lambert3SG
f 11/15/25 9/16/26 10/17/27 12/18/28
f 18/19/29 17/20/30 14/21/31 13/22/32
f 15/25/33 13/26/34 14/27/35 16/28/36
f 19/29/37 20/30/38 15/31/39 16/32/40
f 17/35/41 19/36/42 16/37/43 14/38/44
f 20/41/45 18/42/46 13/43/47 15/44/48
f 19/36/49 17/35/50 12/39/51 10/40/52
f 20/30/53 19/29/54 10/33/55 9/34/56
f 18/42/57 20/41/58 9/45/59 11/46/60
f 17/20/61 18/19/62 11/23/63 12/24/64
g default
v -1.500000 -0.150000 1.500000
v 1.500000 -0.150000 1.500000
v -1.500000 0.150000 1.500000
v 1.500000 0.150000 1.500000
v -1.500000 0.150000 -1.500000
v 1.500000 0.150000 -1.500000
v -1.500000 -0.150000 -1.500000
v 1.500000 -0.150000 -1.500000
vt -0.300997 0.427558
vt -0.300997 -0.068578
vt -0.251384 -0.068578
vt -0.251384 0.427558
vt 0.046164 0.037345
vt 0.945664 0.037345
vt 0.945664 0.936844
vt 0.046164 0.936844
vt -0.273855 0.359928
vt -0.273855 -0.136209
vt -0.224242 -0.136209
vt -0.224242 0.359928
vt 0.439618 0.501871
vt 0.935755 0.501871
vt 0.935755 0.998008
vt 0.439618 0.998008
vt -0.309692 0.980365
vt -0.309692 0.484228
vt -0.260078 0.484228
vt -0.260078 0.980365
vt -0.365058 0.980365
vt -0.365058 0.484228
vt -0.315444 0.484228
vt -0.315444 0.980365
vn 0.000000 0.000000 1.000000
vn 0.000000 0.000000 1.000000
vn 0.000000 0.000000 1.000000
vn 0.000000 0.000000 1.000000
vn 0.000000 1.000000 0.000000
vn 0.000000 1.000000 0.000000
vn 0.000000 1.000000 0.000000
vn 0.000000 1.000000 0.000000
vn 0.000000 0.000000 -1.000000
vn 0.000000 0.000000 -1.000000
vn 0.000000 0.000000 -1.000000
vn 0.000000 0.000000 -1.000000
vn 0.000000 -1.000000 0.000000
vn 0.000000 -1.000000 0.000000
vn 0.000000 -1.000000 0.000000
vn 0.000000 -1.000000 0.000000
vn 1.000000 0.000000 0.000000
vn 1.000000 0.000000 0.000000
vn 1.000000 0.000000 0.000000
vn 1.000000 0.000000 0.000000
vn -1.000000 0.000000 0.000000
vn -1.000000 0.000000 0.000000
vn -1.000000 0.000000 0.000000
vn -1.000000 0.000000 0.000000
s off
g group1 pCube3
usemtl lambert2SG
f 21/47/65 22/48/66 24/49/67 23/50/68
f 23/51/69 24/52/70 26/53/71 25/54/72
f 25/55/73 26/56/74 28/57/75 27/58/76
f 27/59/77 28/60/78 22/61/79 21/62/80
f 22/63/81 28/64/82 26/65/83 24/66/84
f 27/67/85 21/68/86 23/69/87 25/70/88
g default
v -1.500000 0.150000 -1.500000
v 1.500000 0.150000 -1.500000
v -1.500000 0.150000 -1.200000
v 1.500000 0.150000 -1.200000
v -1.500000 3.150000 -1.000000
v 1.500000 3.150000 -1.000000
v -1.500000 3.150000 -1.500000
v 1.500000 3.150000 -1.500000
v 1.500000 2.721428 -1.200000
v -1.500000 2.721428 -1.200000
v 1.500000 2.721428 -1.500000
v -1.500000 2.721428 -1.500000
vt 0.553777 0.498110
vt 0.504165 0.498110
vt 0.504165 0.001992
vt 0.553777 0.001992
vt 0.003062 0.857275
vt 0.999383 0.857275
vt 0.999383 0.999607
vt 0.003062 0.999607
vt 0.003062 0.003286
vt 0.999383 0.003286
vt 0.443326 0.998008
vt 0.360640 0.998008
vt 0.360640 0.501890
vt 0.443326 0.501890
vt 0.498004 0.072866
vt 0.001887 0.072866
vt 0.001887 0.001992
vt 0.498004 0.001992
vt 0.498004 0.498110
vt 0.001887 0.498110
vt 0.305217 0.927134
vt 0.354829 0.927134
vt 0.354829 0.998008
vt 0.272143 0.998008
vt 0.305217 0.501890
vt 0.354829 0.501890
vt 0.183646 0.927134
vt 0.233257 0.927134
vt 0.266332 0.998008
vt 0.183646 0.998008
vt 0.183646 0.501890
vt 0.233257 0.501890
vn 0.000000 -1.000000 0.000000
vn 0.000000 -1.000000 0.000000
vn 0.000000 -1.000000 0.000000
vn 0.000000 -1.000000 0.000000
vn 0.000000 -0.422885 0.906183
vn 0.000000 -0.422885 0.906183
vn 0.000000 -0.422885 0.906183
vn 0.000000 -0.422885 0.906183
vn 0.000000 1.000000 0.000000
vn 0.000000 1.000000 0.000000
vn 0.000000 1.000000 0.000000
vn 0.000000 1.000000 0.000000
vn 0.000000 0.000000 -1.000000
vn 0.000000 0.000000 -1.000000
vn 0.000000 0.000000 -1.000000
vn 0.000000 0.000000 -1.000000
vn 1.000000 0.000000 0.000000
vn 1.000000 0.000000 0.000000
vn 1.000000 0.000000 0.000000
vn 1.000000 0.000000 0.000000
vn -1.000000 0.000000 0.000000
vn -1.000000 0.000000 0.000000
vn -1.000000 0.000000 0.000000
vn -1.000000 0.000000 0.000000
vn 0.000000 0.000000 1.000000
vn 0.000000 0.000000 1.000000
vn 0.000000 0.000000 1.000000
vn 0.000000 0.000000 1.000000
vn 1.000000 0.000000 0.000000
vn 1.000000 0.000000 0.000000
vn 1.000000 0.000000 0.000000
vn 1.000000 0.000000 0.000000
vn 0.000000 0.000000 -1.000000
vn 0.000000 0.000000 -1.000000
vn 0.000000 0.000000 -1.000000
vn 0.000000 0.000000 -1.000000
vn -1.000000 0.000000 0.000000
vn -1.000000 0.000000 0.000000
vn -1.000000 0.000000 0.000000
vn -1.000000 0.000000 0.000000
s off
g group1 pCube4
usemtl lambert3SG
f 31/71/89 29/72/90 30/73/91 32/74/92
f 38/75/93 37/76/94 34/77/95 33/78/96
f 35/81/97 33/82/98 34/83/99 36/84/100
f 39/85/101 40/86/102 35/87/103 36/88/104
f 37/91/105 39/92/106 36/93/107 34/94/108
f 40/97/109 38/98/110 33/99/111 35/100/112
f 37/76/113 38/75/114 31/79/115 32/80/116
f 39/92/117 37/91/118 32/95/119 30/96/120
f 40/86/121 39/85/122 30/89/123 29/90/124
f 38/98/125 40/97/126 29/101/127 31/102/128
