# This file uses centimeters as units for non-parametric coordinates.

mtllib Open_01.mtl
g default
v -1.500000 3.150000 1.500000
v 1.500000 3.150000 1.500000
v -1.500000 3.450000 1.500000
v 1.500000 3.450000 1.500000
v -1.500000 3.450000 -1.500000
v 1.500000 3.450000 -1.500000
v -1.500000 3.150000 -1.500000
v 1.500000 3.150000 -1.500000
vt 0.375000 0.000000
vt 0.625000 0.000000
vt 0.375000 0.250000
vt 0.625000 0.250000
vt 0.375000 0.500000
vt 0.625000 0.500000
vt 0.375000 0.750000
vt 0.625000 0.750000
vt 0.375000 1.000000
vt 0.625000 1.000000
vt 0.875000 0.000000
vt 0.875000 0.250000
vt 0.125000 0.000000
vt 0.125000 0.250000
vn 0.000000 0.000000 1.000000
vn 0.000000 0.000000 1.000000
vn 0.000000 0.000000 1.000000
vn 0.000000 0.000000 1.000000
vn 0.000000 1.000000 0.000000
vn 0.000000 1.000000 0.000000
vn 0.000000 1.000000 0.000000
vn 0.000000 1.000000 0.000000
vn 0.000000 0.000000 -1.000000
vn 0.000000 0.000000 -1.000000
vn 0.000000 0.000000 -1.000000
vn 0.000000 0.000000 -1.000000
vn 0.000000 -1.000000 0.000000
vn 0.000000 -1.000000 0.000000
vn 0.000000 -1.000000 0.000000
vn 0.000000 -1.000000 0.000000
vn 1.000000 0.000000 0.000000
vn 1.000000 0.000000 0.000000
vn 1.000000 0.000000 0.000000
vn 1.000000 0.000000 0.000000
vn -1.000000 0.000000 0.000000
vn -1.000000 0.000000 0.000000
vn -1.000000 0.000000 0.000000
vn -1.000000 0.000000 0.000000
s off
g pCube4
usemtl lambert2SG
f 1/1/1 2/2/2 4/4/3 3/3/4
f 3/3/5 4/4/6 6/6/7 5/5/8
f 5/5/9 6/6/10 8/8/11 7/7/12
f 7/7/13 8/8/14 2/10/15 1/9/16
f 2/2/17 8/11/18 6/12/19 4/4/20
f 7/13/21 1/1/22 3/3/23 5/14/24
g default
v -1.500000 -0.150000 1.500000
v 1.500000 -0.150000 1.500000
v -1.500000 0.150000 1.500000
v 1.500000 0.150000 1.500000
v -1.500000 0.150000 -1.500000
v 1.500000 0.150000 -1.500000
v -1.500000 -0.150000 -1.500000
v 1.500000 -0.150000 -1.500000
vt 0.001868 0.498129
vt 0.001868 0.001992
vt 0.051481 0.001992
vt 0.051481 0.498129
vt 0.000782 0.000471
vt 1.000175 0.000471
vt 1.000175 0.999864
vt 0.000782 0.999864
vt 0.561229 0.498129
vt 0.561229 0.001992
vt 0.610843 0.001992
vt 0.610843 0.498129
vt 0.439618 0.501871
vt 0.935755 0.501871
vt 0.935755 0.998008
vt 0.439618 0.998008
vt 0.384252 0.998008
vt 0.384252 0.501871
vt 0.433865 0.501871
vt 0.433865 0.998008
vt 0.328886 0.998008
vt 0.328886 0.501871
vt 0.378499 0.501871
vt 0.378499 0.998008
vn 0.000000 0.000000 1.000000
vn 0.000000 0.000000 1.000000
vn 0.000000 0.000000 1.000000
vn 0.000000 0.000000 1.000000
vn 0.000000 1.000000 0.000000
vn 0.000000 1.000000 0.000000
vn 0.000000 1.000000 0.000000
vn 0.000000 1.000000 0.000000
vn 0.000000 0.000000 -1.000000
vn 0.000000 0.000000 -1.000000
vn 0.000000 0.000000 -1.000000
vn 0.000000 0.000000 -1.000000
vn 0.000000 -1.000000 0.000000
vn 0.000000 -1.000000 0.000000
vn 0.000000 -1.000000 0.000000
vn 0.000000 -1.000000 0.000000
vn 1.000000 0.000000 0.000000
vn 1.000000 0.000000 0.000000
vn 1.000000 0.000000 0.000000
vn 1.000000 0.000000 0.000000
vn -1.000000 0.000000 0.000000
vn -1.000000 0.000000 0.000000
vn -1.000000 0.000000 0.000000
vn -1.000000 0.000000 0.000000
s off
g pCube3 group1
usemtl lambert5SG
f 9/15/25 10/16/26 12/17/27 11/18/28
f 11/19/29 12/20/30 14/21/31 13/22/32
f 13/23/33 14/24/34 16/25/35 15/26/36
f 15/27/37 16/28/38 10/29/39 9/30/40
f 10/31/41 16/32/42 14/33/43 12/34/44
f 15/35/45 9/36/46 11/37/47 13/38/48
g default
v 1.000000 3.150000 -1.500000
v 1.200000 0.150000 -1.500000
v 1.200000 0.150000 -1.200000
v 1.000000 3.150000 -1.000000
v 1.500000 0.150000 -1.500000
v 1.500000 3.150000 -1.500000
v 1.500000 3.150000 -1.000000
v 1.500000 0.150000 -1.200000
v 1.200000 2.721429 -1.500000
v 1.200000 2.721429 -1.200000
v 1.500000 2.721429 -1.500000
v 1.500000 2.721429 -1.200000
vt 0.175878 0.855720
vt 0.275480 0.855720
vt 0.341881 0.998008
vt 0.175878 0.998008
vt 0.175878 0.001992
vt 0.275480 0.001992
vt 0.416027 0.855720
vt 0.515629 0.855720
vt 0.515629 0.998008
vt 0.349626 0.998008
vt 0.416027 0.001992
vt 0.515629 0.001992
vt 0.589776 0.855720
vt 0.689377 0.855720
vt 0.689377 0.998008
vt 0.523375 0.998008
vt 0.589776 0.001992
vt 0.689377 0.001992
vt 0.970472 0.101594
vt 0.870871 0.101594
vt 0.870871 0.001992
vt 0.970472 0.001992
vt 0.001937 0.855720
vt 0.101539 0.855720
vt 0.167940 0.998008
vt 0.001937 0.998008
vt 0.001937 0.001992
vt 0.101539 0.001992
vt 0.863125 0.167995
vt 0.697123 0.167995
vt 0.697123 0.001992
vt 0.863125 0.001992
vn -0.906183 -0.422885 -0.000001
vn -0.906183 -0.422885 -0.000001
vn -0.906183 -0.422885 -0.000001
vn -0.906183 -0.422885 -0.000001
vn 1.000000 0.000000 0.000000
vn 1.000000 0.000000 0.000000
vn 1.000000 0.000000 0.000000
vn 1.000000 0.000000 0.000000
vn 0.000000 -0.422886 0.906183
vn 0.000000 -0.422886 0.906183
vn 0.000000 -0.422886 0.906183
vn 0.000000 -0.422886 0.906183
vn 0.000000 -1.000000 0.000000
vn 0.000000 -1.000000 0.000000
vn 0.000000 -1.000000 0.000000
vn 0.000000 -1.000000 0.000000
vn 0.000000 0.000000 -1.000000
vn 0.000000 0.000000 -1.000000
vn 0.000000 0.000000 -1.000000
vn 0.000000 0.000000 -1.000000
vn 0.000000 1.000000 0.000000
vn 0.000000 1.000000 0.000000
vn 0.000000 1.000000 0.000000
vn 0.000000 1.000000 0.000000
vn -0.000001 -0.000000 1.000000
vn -0.000001 -0.000000 1.000000
vn -0.000001 -0.000000 1.000000
vn -0.000001 -0.000000 1.000000
vn 1.000000 0.000000 0.000000
vn 1.000000 0.000000 0.000000
vn 1.000000 0.000000 0.000000
vn 1.000000 0.000000 0.000000
vn 0.000000 0.000000 -1.000000
vn 0.000000 0.000000 -1.000000
vn 0.000000 0.000000 -1.000000
vn 0.000000 0.000000 -1.000000
vn -1.000000 -0.000000 -0.000000
vn -1.000000 -0.000000 -0.000000
vn -1.000000 -0.000000 -0.000000
vn -1.000000 -0.000000 -0.000000
s off
g group1 polySurface1
usemtl lambert6SG
f 25/39/49 26/40/50 20/41/51 17/42/52
f 28/45/53 27/46/54 22/47/55 23/48/56
f 26/51/57 28/52/58 23/53/59 20/54/60
f 24/57/61 19/58/62 18/59/63 21/60/64
f 27/61/65 25/62/66 17/63/67 22/64/68
f 22/67/69 17/68/70 20/69/71 23/70/72
f 28/52/73 26/51/74 19/55/75 24/56/76
f 27/46/77 28/45/78 24/49/79 21/50/80
f 25/62/81 27/61/82 21/65/83 18/66/84
f 26/40/85 25/39/86 18/43/87 19/44/88
g default
v 1.000000 3.150000 1.000000
v 1.200000 0.150000 1.200000
v 1.200000 0.150000 1.500000
v 1.000000 3.150000 1.500000
v 1.500000 0.150000 1.200000
v 1.500000 3.150000 1.000000
v 1.500000 3.150000 1.500000
v 1.500000 0.150000 1.500000
v 1.200000 2.721429 1.200000
v 1.200000 2.721429 1.500000
v 1.500000 2.721429 1.200000
v 1.500000 2.721429 1.500000
vt 0.242279 0.855720
vt 0.341881 0.855720
vt 0.341881 0.998008
vt 0.175878 0.998008
vt 0.242279 0.001992
vt 0.341881 0.001992
vt 0.349626 0.855720
vt 0.449228 0.855720
vt 0.515629 0.998008
vt 0.349626 0.998008
vt 0.349626 0.001992
vt 0.449228 0.001992
vt 0.589775 0.855720
vt 0.689377 0.855720
vt 0.689377 0.998008
vt 0.523374 0.998008
vt 0.589776 0.001992
vt 0.689377 0.001992
vt 0.970472 0.101594
vt 0.870871 0.101594
vt 0.870871 0.001992
vt 0.970472 0.001992
vt 0.001937 0.855720
vt 0.101539 0.855720
vt 0.167940 0.998008
vt 0.001937 0.998008
vt 0.001937 0.001992
vt 0.101539 0.001992
vt 0.863125 0.001992
vt 0.863125 0.167995
vt 0.697123 0.167995
vt 0.697123 0.001992
vn -0.906183 -0.422886 -0.000001
vn -0.906183 -0.422886 -0.000001
vn -0.906183 -0.422886 -0.000001
vn -0.906183 -0.422886 -0.000001
vn 1.000000 0.000000 0.000000
vn 1.000000 0.000000 0.000000
vn 1.000000 0.000000 0.000000
vn 1.000000 0.000000 0.000000
vn 0.000000 0.000000 1.000000
vn 0.000000 0.000000 1.000000
vn 0.000000 0.000000 1.000000
vn 0.000000 0.000000 1.000000
vn 0.000000 -1.000000 0.000000
vn 0.000000 -1.000000 0.000000
vn 0.000000 -1.000000 0.000000
vn 0.000000 -1.000000 0.000000
vn 0.000000 -0.422885 -0.906183
vn 0.000000 -0.422886 -0.906183
vn 0.000000 -0.422885 -0.906183
vn 0.000000 -0.422885 -0.906183
vn 0.000000 1.000000 0.000000
vn 0.000000 1.000000 0.000000
vn 0.000000 1.000000 0.000000
vn 0.000000 1.000000 0.000000
vn 1.000000 0.000000 0.000000
vn 1.000000 0.000000 0.000000
vn 1.000000 0.000000 0.000000
vn 1.000000 0.000000 0.000000
vn -0.000000 0.000000 -1.000000
vn -0.000000 0.000000 -1.000000
vn -0.000000 0.000000 -1.000000
vn -0.000000 0.000000 -1.000000
vn -1.000000 -0.000000 -0.000000
vn -1.000000 -0.000000 -0.000000
vn -1.000000 -0.000000 -0.000000
vn -1.000000 -0.000000 -0.000000
vn -0.000000 -0.000000 1.000000
vn -0.000000 -0.000000 1.000000
vn -0.000000 -0.000000 1.000000
vn -0.000000 -0.000000 1.000000
s off
g group1 polySurface2
usemtl lambert6SG
f 37/71/89 38/72/90 32/73/91 29/74/92
f 40/77/93 39/78/94 34/79/95 35/80/96
f 38/83/97 40/84/98 35/85/99 32/86/100
f 36/89/101 31/90/102 30/91/103 33/92/104
f 39/93/105 37/94/106 29/95/107 34/96/108
f 34/99/109 29/100/110 32/101/111 35/102/112
f 39/78/113 40/77/114 36/81/115 33/82/116
f 37/94/117 39/93/118 33/97/119 30/98/120
f 38/72/121 37/71/122 30/75/123 31/76/124
f 40/84/125 38/83/126 31/87/127 36/88/128
g default
v -1.500000 3.150000 1.000000
v -1.500000 0.150000 1.200000
v -1.500000 0.150000 1.500000
v -1.500000 3.150000 1.500000
v -1.200000 0.150000 1.200000
v -1.000000 3.150000 1.000000
v -1.000000 3.150000 1.500000
v -1.200000 0.150000 1.500000
v -1.500000 2.721429 1.200000
v -1.500000 2.721429 1.500000
v -1.200000 2.721429 1.200000
v -1.200000 2.721429 1.500000
vt 0.242279 0.855720
vt 0.341881 0.855720
vt 0.341881 0.998008
vt 0.175878 0.998008
vt 0.242279 0.001992
vt 0.341881 0.001992
vt 0.349626 0.855720
vt 0.449228 0.855720
vt 0.515629 0.998008
vt 0.349626 0.998008
vt 0.349626 0.001992
vt 0.449228 0.001992
vt 0.523374 0.855720
vt 0.622976 0.855720
vt 0.689377 0.998008
vt 0.523374 0.998008
vt 0.523375 0.001992
vt 0.622976 0.001992
vt 0.970472 0.101594
vt 0.870871 0.101594
vt 0.870871 0.001992
vt 0.970472 0.001992
vt 0.068338 0.855720
vt 0.167940 0.855720
vt 0.167940 0.998008
vt 0.001937 0.998008
vt 0.068338 0.001992
vt 0.167940 0.001992
vt 0.863125 0.001992
vt 0.863125 0.167995
vt 0.697123 0.167995
vt 0.697123 0.001992
vn -1.000000 -0.000000 -0.000001
vn -1.000000 -0.000000 -0.000001
vn -1.000000 -0.000000 -0.000001
vn -1.000000 -0.000000 -0.000001
vn 0.906183 -0.422886 -0.000000
vn 0.906183 -0.422886 -0.000000
vn 0.906183 -0.422886 -0.000000
vn 0.906183 -0.422886 -0.000000
vn 0.000000 0.000000 1.000000
vn 0.000000 0.000000 1.000000
vn 0.000000 0.000000 1.000000
vn 0.000000 0.000000 1.000000
vn 0.000000 -1.000000 0.000000
vn 0.000000 -1.000000 0.000000
vn 0.000000 -1.000000 0.000000
vn 0.000000 -1.000000 0.000000
vn 0.000000 -0.422886 -0.906183
vn 0.000000 -0.422886 -0.906183
vn 0.000000 -0.422886 -0.906183
vn 0.000000 -0.422886 -0.906183
vn 0.000000 1.000000 0.000000
vn 0.000000 1.000000 0.000000
vn 0.000000 1.000000 0.000000
vn 0.000000 1.000000 0.000000
vn -1.000000 -0.000000 -0.000000
vn -1.000000 -0.000000 -0.000000
vn -1.000000 -0.000000 -0.000000
vn -1.000000 -0.000000 -0.000000
vn -0.000000 -0.000000 1.000000
vn -0.000000 -0.000000 1.000000
vn -0.000000 -0.000000 1.000000
vn -0.000000 -0.000000 1.000000
vn 1.000000 0.000000 0.000000
vn 1.000000 0.000000 0.000000
vn 1.000000 0.000000 0.000000
vn 1.000000 0.000000 0.000000
vn -0.000000 0.000000 -1.000000
vn -0.000000 0.000000 -1.000000
vn -0.000000 0.000000 -1.000000
vn -0.000000 0.000000 -1.000000
s off
g group1 polySurface3
usemtl lambert6SG
f 49/103/129 50/104/130 44/105/131 41/106/132
f 52/109/133 51/110/134 46/111/135 47/112/136
f 50/115/137 52/116/138 47/117/139 44/118/140
f 48/121/141 43/122/142 42/123/143 45/124/144
f 51/125/145 49/126/146 41/127/147 46/128/148
f 46/131/149 41/132/150 44/133/151 47/134/152
f 50/104/153 49/103/154 42/107/155 43/108/156
f 52/116/157 50/115/158 43/119/159 48/120/160
f 51/110/161 52/109/162 48/113/163 45/114/164
f 49/126/165 51/125/166 45/129/167 42/130/168
g default
v -1.500000 3.150000 -1.500000
v -1.500000 0.150000 -1.500000
v -1.500000 0.150000 -1.200000
v -1.500000 3.150000 -1.000000
v -1.200000 0.150000 -1.500000
v -1.000000 3.150000 -1.500000
v -1.000000 3.150000 -1.000000
v -1.200000 0.150000 -1.200000
v -1.500000 2.721429 -1.500000
v -1.500000 2.721429 -1.200000
v -1.200000 2.721429 -1.500000
v -1.200000 2.721429 -1.200000
vt 0.175878 0.855720
vt 0.275480 0.855720
vt 0.341881 0.998008
vt 0.175878 0.998008
vt 0.175878 0.001992
vt 0.275480 0.001992
vt 0.416027 0.855720
vt 0.515629 0.855720
vt 0.515629 0.998008
vt 0.349626 0.998008
vt 0.416027 0.001992
vt 0.515629 0.001992
vt 0.523375 0.855720
vt 0.622976 0.855720
vt 0.689377 0.998008
vt 0.523375 0.998008
vt 0.523375 0.001992
vt 0.622976 0.001992
vt 0.970472 0.101594
vt 0.870871 0.101594
vt 0.870871 0.001992
vt 0.970472 0.001992
vt 0.068338 0.855720
vt 0.167940 0.855720
vt 0.167940 0.998008
vt 0.001937 0.998008
vt 0.068338 0.001992
vt 0.167940 0.001992
vt 0.863125 0.167995
vt 0.697123 0.167995
vt 0.697123 0.001992
vt 0.863125 0.001992
vn -1.000000 0.000000 -0.000001
vn -1.000000 0.000000 -0.000001
vn -1.000000 0.000000 -0.000001
vn -1.000000 0.000000 -0.000001
vn 0.906183 -0.422886 -0.000000
vn 0.906183 -0.422886 -0.000000
vn 0.906183 -0.422886 -0.000000
vn 0.906183 -0.422886 -0.000000
vn 0.000000 -0.422886 0.906183
vn 0.000000 -0.422886 0.906183
vn 0.000000 -0.422886 0.906183
vn 0.000000 -0.422886 0.906183
vn 0.000000 -1.000000 0.000000
vn 0.000000 -1.000000 0.000000
vn 0.000000 -1.000000 0.000000
vn 0.000000 -1.000000 0.000000
vn 0.000000 0.000000 -1.000000
vn 0.000000 0.000000 -1.000000
vn 0.000000 0.000000 -1.000000
vn 0.000000 0.000000 -1.000000
vn 0.000000 1.000000 0.000000
vn 0.000000 1.000000 0.000000
vn 0.000000 1.000000 0.000000
vn 0.000000 1.000000 0.000000
vn 0.000000 0.000000 -1.000000
vn 0.000000 0.000000 -1.000000
vn 0.000000 0.000000 -1.000000
vn 0.000000 0.000000 -1.000000
vn -1.000000 -0.000000 -0.000000
vn -1.000000 -0.000000 -0.000000
vn -1.000000 -0.000000 -0.000000
vn -1.000000 -0.000000 -0.000000
vn -0.000001 -0.000000 1.000000
vn -0.000001 -0.000000 1.000000
vn -0.000001 -0.000000 1.000000
vn -0.000001 -0.000000 1.000000
vn 1.000000 0.000000 0.000000
vn 1.000000 0.000000 0.000000
vn 1.000000 0.000000 0.000000
vn 1.000000 0.000000 0.000000
s off
g group1 polySurface4
usemtl lambert6SG
f 61/135/169 62/136/170 56/137/171 53/138/172
f 64/141/173 63/142/174 58/143/175 59/144/176
f 62/147/177 64/148/178 59/149/179 56/150/180
f 60/153/181 55/154/182 54/155/183 57/156/184
f 63/157/185 61/158/186 53/159/187 58/160/188
f 58/163/189 53/164/190 56/165/191 59/166/192
f 61/158/193 63/157/194 57/161/195 54/162/196
f 62/136/197 61/135/198 54/139/199 55/140/200
f 64/148/201 62/147/202 55/151/203 60/152/204
f 63/142/205 64/141/206 60/145/207 57/146/208
