# This file uses centimeters as units for non-parametric coordinates.

mtllib Wall_01.mtl
g default
v -1.500000 0.150000 -1.500000
v 1.500000 0.150000 -1.500000
v -1.500000 0.150000 -1.200000
v 1.500000 0.150000 -1.200000
v -1.500000 3.150000 -1.000000
v 1.500000 3.150000 -1.000000
v -1.500000 3.150000 -1.500000
v 1.500000 3.150000 -1.500000
v 1.500000 2.721429 -1.200000
v -1.500000 2.721429 -1.200000
v 1.500000 2.721429 -1.500000
v -1.500000 2.721429 -1.500000
vt 0.730987 0.498110
vt 0.681375 0.498110
vt 0.681375 0.001992
vt 0.730987 0.001992
vt 0.004958 0.855473
vt 0.999216 0.855473
vt 0.999216 0.997510
vt 0.004958 0.997510
vt 0.004958 0.003252
vt 0.999216 0.003252
vt 0.586852 0.498110
vt 0.504165 0.498110
vt 0.504165 0.001992
vt 0.586852 0.001992
vt 0.945255 0.572764
vt 0.449137 0.572764
vt 0.449137 0.501890
vt 0.945255 0.501890
vt 0.945255 0.998008
vt 0.449137 0.998008
vt 0.642382 0.072866
vt 0.592770 0.072866
vt 0.592770 0.001992
vt 0.675456 0.001992
vt 0.642382 0.498110
vt 0.592770 0.498110
vt 0.360640 0.927134
vt 0.410252 0.927134
vt 0.443326 0.998008
vt 0.360640 0.998008
vt 0.360640 0.501890
vt 0.410252 0.501890
vn 0.000000 -1.000000 0.000000
vn 0.000000 -1.000000 0.000000
vn 0.000000 -1.000000 0.000000
vn 0.000000 -1.000000 0.000000
vn 0.000000 -0.422886 0.906183
vn 0.000000 -0.422886 0.906183
vn 0.000000 -0.422886 0.906183
vn 0.000000 -0.422886 0.906183
vn 0.000000 1.000000 -0.000000
vn 0.000000 1.000000 -0.000000
vn 0.000000 1.000000 -0.000000
vn 0.000000 1.000000 -0.000000
vn 0.000000 -0.000000 -1.000000
vn 0.000000 -0.000000 -1.000000
vn 0.000000 -0.000000 -1.000000
vn 0.000000 -0.000000 -1.000000
vn 1.000000 0.000000 0.000000
vn 1.000000 0.000000 0.000000
vn 1.000000 0.000000 0.000000
vn 1.000000 0.000000 0.000000
vn -1.000000 0.000000 0.000000
vn -1.000000 0.000000 0.000000
vn -1.000000 0.000000 0.000000
vn -1.000000 0.000000 0.000000
vn 0.000000 0.000000 1.000000
vn 0.000000 0.000000 1.000000
vn 0.000000 0.000000 1.000000
vn 0.000000 0.000000 1.000000
vn 1.000000 0.000000 0.000000
vn 1.000000 0.000000 0.000000
vn 1.000000 0.000000 0.000000
vn 1.000000 0.000000 0.000000
vn 0.000000 -0.000000 -1.000000
vn 0.000000 -0.000000 -1.000000
vn 0.000000 -0.000000 -1.000000
vn 0.000000 -0.000000 -1.000000
vn -1.000000 0.000000 0.000000
vn -1.000000 0.000000 0.000000
vn -1.000000 0.000000 0.000000
vn -1.000000 0.000000 0.000000
s off
g pCube2
usemtl lambert8SG
f 3/1/1 1/2/2 2/3/3 4/4/4
f 10/5/5 9/6/6 6/7/7 5/8/8
f 7/11/9 5/12/10 6/13/11 8/14/12
f 11/15/13 12/16/14 7/17/15 8/18/16
f 9/21/17 11/22/18 8/23/19 6/24/20
f 12/27/21 10/28/22 5/29/23 7/30/24
f 9/6/25 10/5/26 3/9/27 4/10/28
f 11/22/29 9/21/30 4/25/31 2/26/32
f 12/16/33 11/15/34 2/19/35 1/20/36
f 10/28/37 12/27/38 1/31/39 3/32/40
g default
v -1.500000 -0.150000 1.500000
v 1.500000 -0.150000 1.500000
v -1.500000 0.150000 1.500000
v 1.500000 0.150000 1.500000
v -1.500000 0.150000 -1.500000
v 1.500000 0.150000 -1.500000
v -1.500000 -0.150000 -1.500000
v 1.500000 -0.150000 -1.500000
vt 0.001868 0.498129
vt 0.001868 0.001992
vt 0.051481 0.001992
vt 0.051481 0.498129
vt -0.001742 0.001757
vt 0.997970 0.001757
vt 0.997970 1.001470
vt -0.001742 1.001470
vt 0.561229 0.498129
vt 0.561229 0.001992
vt 0.610843 0.001992
vt 0.610843 0.498129
vt 0.439618 0.501871
vt 0.935755 0.501871
vt 0.935755 0.998008
vt 0.439618 0.998008
vt 0.384252 0.998008
vt 0.384252 0.501871
vt 0.433865 0.501871
vt 0.433865 0.998008
vt 0.328886 0.998008
vt 0.328886 0.501871
vt 0.378499 0.501871
vt 0.378499 0.998008
vn 0.000000 0.000000 1.000000
vn 0.000000 0.000000 1.000000
vn 0.000000 0.000000 1.000000
vn 0.000000 0.000000 1.000000
vn 0.000000 1.000000 0.000000
vn 0.000000 1.000000 0.000000
vn 0.000000 1.000000 0.000000
vn 0.000000 1.000000 0.000000
vn 0.000000 0.000000 -1.000000
vn 0.000000 0.000000 -1.000000
vn 0.000000 0.000000 -1.000000
vn 0.000000 0.000000 -1.000000
vn 0.000000 -1.000000 0.000000
vn 0.000000 -1.000000 0.000000
vn 0.000000 -1.000000 0.000000
vn 0.000000 -1.000000 0.000000
vn 1.000000 0.000000 0.000000
vn 1.000000 0.000000 0.000000
vn 1.000000 0.000000 0.000000
vn 1.000000 0.000000 0.000000
vn -1.000000 0.000000 0.000000
vn -1.000000 0.000000 0.000000
vn -1.000000 0.000000 0.000000
vn -1.000000 0.000000 0.000000
s off
g Wall_E_01:pCube3
usemtl lambert7SG
f 13/33/41 14/34/42 16/35/43 15/36/44
f 15/37/45 16/38/46 18/39/47 17/40/48
f 17/41/49 18/42/50 20/43/51 19/44/52
f 19/45/53 20/46/54 14/47/55 13/48/56
f 14/49/57 20/50/58 18/51/59 16/52/60
f 19/53/61 13/54/62 15/55/63 17/56/64
g default
v 1.000000 3.150000 1.000000
v 1.200000 0.150000 1.200000
v 1.200000 0.150000 1.500000
v 1.000000 3.150000 1.500000
v 1.500000 0.150000 1.200000
v 1.500000 3.150000 1.000000
v 1.500000 3.150000 1.500000
v 1.500000 0.150000 1.500000
v 1.200000 2.721429 1.200000
v 1.200000 2.721429 1.500000
v 1.500000 2.721429 1.200000
v 1.500000 2.721429 1.500000
vt 0.242279 0.855720
vt 0.341881 0.855720
vt 0.341881 0.998008
vt 0.175878 0.998008
vt 0.242279 0.001992
vt 0.341881 0.001992
vt 0.349626 0.855720
vt 0.449228 0.855720
vt 0.515629 0.998008
vt 0.349626 0.998008
vt 0.349626 0.001992
vt 0.449228 0.001992
vt 0.589775 0.855720
vt 0.689377 0.855720
vt 0.689377 0.998008
vt 0.523374 0.998008
vt 0.589776 0.001992
vt 0.689377 0.001992
vt 0.970472 0.101594
vt 0.870871 0.101594
vt 0.870871 0.001992
vt 0.970472 0.001992
vt 0.002662 0.856242
vt 0.102263 0.856242
vt 0.168664 0.998530
vt 0.002662 0.998530
vt 0.002662 0.002514
vt 0.102263 0.002514
vt 0.863125 0.001992
vt 0.863125 0.167995
vt 0.697123 0.167995
vt 0.697123 0.001992
vn -0.906183 -0.422886 -0.000001
vn -0.906183 -0.422886 -0.000001
vn -0.906183 -0.422886 -0.000001
vn -0.906183 -0.422886 -0.000001
vn 1.000000 0.000000 0.000000
vn 1.000000 0.000000 0.000000
vn 1.000000 0.000000 0.000000
vn 1.000000 0.000000 0.000000
vn 0.000000 0.000000 1.000000
vn 0.000000 0.000000 1.000000
vn 0.000000 0.000000 1.000000
vn 0.000000 0.000000 1.000000
vn 0.000000 -1.000000 0.000000
vn 0.000000 -1.000000 0.000000
vn 0.000000 -1.000000 0.000000
vn 0.000000 -1.000000 0.000000
vn 0.000000 -0.422885 -0.906183
vn 0.000000 -0.422886 -0.906183
vn 0.000000 -0.422885 -0.906183
vn 0.000000 -0.422885 -0.906183
vn 0.000000 1.000000 0.000000
vn 0.000000 1.000000 0.000000
vn 0.000000 1.000000 0.000000
vn 0.000000 1.000000 0.000000
vn 1.000000 0.000000 0.000000
vn 1.000000 0.000000 0.000000
vn 1.000000 0.000000 0.000000
vn 1.000000 0.000000 0.000000
vn 0.000000 0.000000 -1.000000
vn 0.000000 0.000000 -1.000000
vn 0.000000 0.000000 -1.000000
vn 0.000000 0.000000 -1.000000
vn -1.000000 -0.000000 -0.000000
vn -1.000000 -0.000000 -0.000000
vn -1.000000 -0.000000 -0.000000
vn -1.000000 -0.000000 -0.000000
vn -0.000001 -0.000000 1.000000
vn -0.000001 -0.000000 1.000000
vn -0.000001 -0.000000 1.000000
vn -0.000001 -0.000000 1.000000
s off
g Wall_E_01:polySurface2
usemtl lambert8SG
f 29/57/65 30/58/66 24/59/67 21/60/68
f 32/63/69 31/64/70 26/65/71 27/66/72
f 30/69/73 32/70/74 27/71/75 24/72/76
f 28/75/77 23/76/78 22/77/79 25/78/80
f 31/79/81 29/80/82 21/81/83 26/82/84
f 26/85/85 21/86/86 24/87/87 27/88/88
f 31/64/89 32/63/90 28/67/91 25/68/92
f 29/80/93 31/79/94 25/83/95 22/84/96
f 30/58/97 29/57/98 22/61/99 23/62/100
f 32/70/101 30/69/102 23/73/103 28/74/104
g default
v -1.500000 3.150000 1.000000
v -1.500000 0.150000 1.200000
v -1.500000 0.150000 1.500000
v -1.500000 3.150000 1.500000
v -1.200000 0.150000 1.200000
v -1.000000 3.150000 1.000000
v -1.000000 3.150000 1.500000
v -1.200000 0.150000 1.500000
v -1.500000 2.721429 1.200000
v -1.500000 2.721429 1.500000
v -1.200000 2.721429 1.200000
v -1.200000 2.721429 1.500000
vt 0.242279 0.855720
vt 0.341881 0.855720
vt 0.341881 0.998008
vt 0.175878 0.998008
vt 0.242279 0.001992
vt 0.341881 0.001992
vt 0.349626 0.855720
vt 0.449228 0.855720
vt 0.515629 0.998008
vt 0.349626 0.998008
vt 0.349626 0.001992
vt 0.449228 0.001992
vt 0.523374 0.855720
vt 0.622976 0.855720
vt 0.689377 0.998008
vt 0.523374 0.998008
vt 0.523375 0.001992
vt 0.622976 0.001992
vt 0.970472 0.101594
vt 0.870871 0.101594
vt 0.870871 0.001992
vt 0.970472 0.001992
vt 0.066018 0.858294
vt 0.165620 0.858294
vt 0.165620 1.000582
vt -0.000383 1.000582
vt 0.066018 0.004566
vt 0.165620 0.004566
vt 0.863125 0.001992
vt 0.863125 0.167995
vt 0.697123 0.167995
vt 0.697123 0.001992
vn -1.000000 -0.000000 -0.000001
vn -1.000000 -0.000000 -0.000001
vn -1.000000 -0.000000 -0.000001
vn -1.000000 -0.000000 -0.000001
vn 0.906183 -0.422886 -0.000000
vn 0.906183 -0.422886 -0.000000
vn 0.906183 -0.422886 -0.000000
vn 0.906183 -0.422886 -0.000000
vn 0.000000 0.000000 1.000000
vn 0.000000 0.000000 1.000000
vn 0.000000 0.000000 1.000000
vn 0.000000 0.000000 1.000000
vn 0.000000 -1.000000 0.000000
vn 0.000000 -1.000000 0.000000
vn 0.000000 -1.000000 0.000000
vn 0.000000 -1.000000 0.000000
vn 0.000000 -0.422886 -0.906183
vn 0.000000 -0.422886 -0.906183
vn 0.000000 -0.422886 -0.906183
vn 0.000000 -0.422886 -0.906183
vn 0.000000 1.000000 0.000000
vn 0.000000 1.000000 0.000000
vn 0.000000 1.000000 0.000000
vn 0.000000 1.000000 0.000000
vn -1.000000 -0.000000 -0.000000
vn -1.000000 -0.000000 -0.000000
vn -1.000000 -0.000000 -0.000000
vn -1.000000 -0.000000 -0.000000
vn -0.000001 -0.000000 1.000000
vn -0.000001 -0.000000 1.000000
vn -0.000001 -0.000000 1.000000
vn -0.000001 -0.000000 1.000000
vn 1.000000 0.000000 0.000000
vn 1.000000 0.000000 0.000000
vn 1.000000 0.000000 0.000000
vn 1.000000 0.000000 0.000000
vn 0.000000 0.000000 -1.000000
vn 0.000000 0.000000 -1.000000
vn 0.000000 0.000000 -1.000000
vn 0.000000 0.000000 -1.000000
s off
g Wall_E_01:polySurface3
usemtl lambert8SG
f 41/89/105 42/90/106 36/91/107 33/92/108
f 44/95/109 43/96/110 38/97/111 39/98/112
f 42/101/113 44/102/114 39/103/115 36/104/116
f 40/107/117 35/108/118 34/109/119 37/110/120
f 43/111/121 41/112/122 33/113/123 38/114/124
f 38/117/125 33/118/126 36/119/127 39/120/128
f 42/90/129 41/89/130 34/93/131 35/94/132
f 44/102/133 42/101/134 35/105/135 40/106/136
f 43/96/137 44/95/138 40/99/139 37/100/140
f 41/112/141 43/111/142 37/115/143 34/116/144
g default
v -1.500000 3.150000 1.500000
v 1.500000 3.150000 1.500000
v -1.500000 3.450000 1.500000
v 1.500000 3.450000 1.500000
v -1.500000 3.450000 -1.500000
v 1.500000 3.450000 -1.500000
v -1.500000 3.150000 -1.500000
v 1.500000 3.150000 -1.500000
vt 0.375000 0.000000
vt 0.625000 0.000000
vt 0.375000 0.250000
vt 0.625000 0.250000
vt 0.375000 0.500000
vt 0.625000 0.500000
vt 0.375000 0.750000
vt 0.625000 0.750000
vt 0.375000 1.000000
vt 0.625000 1.000000
vt 0.875000 0.000000
vt 0.875000 0.250000
vt 0.125000 0.000000
vt 0.125000 0.250000
vn 0.000000 0.000000 1.000000
vn 0.000000 0.000000 1.000000
vn 0.000000 0.000000 1.000000
vn 0.000000 0.000000 1.000000
vn 0.000000 1.000000 0.000000
vn 0.000000 1.000000 0.000000
vn 0.000000 1.000000 0.000000
vn 0.000000 1.000000 0.000000
vn 0.000000 0.000000 -1.000000
vn 0.000000 0.000000 -1.000000
vn 0.000000 0.000000 -1.000000
vn 0.000000 0.000000 -1.000000
vn 0.000000 -1.000000 0.000000
vn 0.000000 -1.000000 0.000000
vn 0.000000 -1.000000 0.000000
vn 0.000000 -1.000000 0.000000
vn 1.000000 0.000000 0.000000
vn 1.000000 0.000000 0.000000
vn 1.000000 0.000000 0.000000
vn 1.000000 0.000000 0.000000
vn -1.000000 0.000000 0.000000
vn -1.000000 0.000000 0.000000
vn -1.000000 0.000000 0.000000
vn -1.000000 0.000000 0.000000
s off
g Wall_E_01:pCube4
usemtl Wall_E_01:lambert2SG
f 45/121/145 46/122/146 48/124/147 47/123/148
f 47/123/149 48/124/150 50/126/151 49/125/152
f 49/125/153 50/126/154 52/128/155 51/127/156
f 51/127/157 52/128/158 46/130/159 45/129/160
f 46/122/161 52/131/162 50/132/163 48/124/164
f 51/133/165 45/121/166 47/123/167 49/134/168
